<svg width="71" height="68" viewBox="0 0 71 68" fill="none" xmlns="http://www.w3.org/2000/svg">
<path d="M44.8242 34.9314C44.8242 33.2267 43.4501 31.8448 41.755 31.8448C40.0599 31.8448 38.6857 33.2267 38.6857 34.9314C38.6857 33.2267 37.3115 31.8448 35.6164 31.8448C33.9213 31.8448 32.5472 33.2267 32.5472 34.9314V19.1457C32.5472 17.4179 31.1544 16.0174 29.4364 16.0174C27.7183 16.0174 26.3257 17.4181 26.3257 19.1457V39.8513C26.3257 40.4339 25.5635 40.6492 25.2629 40.1511C23.1651 36.6743 20.7474 33.9289 18.1271 32.9412C16.4579 32.3119 14.7849 33.8456 15.271 35.5705C16.5645 40.1604 18.6989 46.0922 20.9905 51.8647C21.1858 52.3569 21.4776 52.8062 21.8554 53.1756C24.1687 55.4366 25.6542 57.9726 26.0354 60.8756L27.1028 61.5596H47.3259L48.433 60.8756C48.5715 58.53 49.2605 56.2425 50.4905 54.0119C50.7989 53.4528 50.963 52.8247 50.963 52.1853V36.1829C50.963 34.4782 49.5889 33.0963 47.8938 33.0963C46.1987 33.0963 44.8245 34.4782 44.8245 36.1829V34.9314H44.8242Z" fill="#FDC4A6"/>
<path d="M30.6628 57.121C29.4545 57.121 28.3191 56.5347 27.6216 55.5424C27.0438 54.7204 26.3633 53.9325 25.589 53.1757C25.2107 52.8066 24.9183 52.3573 24.7229 51.8643C22.4321 46.092 20.2969 40.1607 19.004 35.5709C18.7913 34.815 18.9916 34.0968 19.4247 33.58C18.9978 33.321 18.5649 33.1057 18.1268 32.9407C16.4583 32.3125 14.7846 33.8454 15.2711 35.5709C16.5639 40.1607 18.6992 46.092 20.9899 51.8643C21.1853 52.3573 21.4777 52.8065 21.8561 53.1757C24.1692 55.4368 25.6549 57.972 26.0356 60.8751H28.0386H29.7685H48.4331C48.5077 59.6075 48.7441 58.3562 49.1399 57.1212H30.6628V57.121Z" fill="#FDC4A6"/>
<path d="M31.3025 16.6434C31.1843 16.7322 31.0734 16.8285 30.969 16.9337C30.4065 17.5006 30.0581 18.2814 30.0581 19.1461V39.8517C30.0581 44.1495 26.3252 44.1495 26.3252 39.7699V19.1461C26.3252 18.2815 26.6736 17.5006 27.2361 16.9337C27.7986 16.3681 28.5775 16.0177 29.4361 16.0177C30.1354 16.0178 30.7824 16.2505 31.3025 16.6434Z" fill="#FDC4A6"/>
<path d="M38.5743 2.13548L39.7242 4.47869C39.8584 4.75215 40.1179 4.94167 40.4179 4.9855L42.9894 5.36123C43.7451 5.47173 44.0469 6.40566 43.5 6.9417L41.6394 8.76574C41.4223 8.97864 41.3231 9.28531 41.3745 9.58586L41.8138 12.1614C41.9428 12.9183 41.1529 13.4955 40.4768 13.1382L38.1769 11.9222C37.9085 11.7802 37.5877 11.7802 37.3193 11.9222L35.0194 13.1382C34.3435 13.4956 33.5534 12.9184 33.6825 12.1614L34.1217 9.58586C34.173 9.28531 34.0739 8.97864 33.8568 8.76574L31.9961 6.94183C31.4492 6.4058 31.751 5.47186 32.5068 5.36136L35.0781 4.98563C35.3782 4.9418 35.6377 4.75228 35.7719 4.47882L36.9218 2.13561C37.2598 1.44684 38.2363 1.44684 38.5743 2.13548Z" fill="#32E3B5"/>
<path d="M7.17974 5.37357L8.32966 7.71678C8.46384 7.99025 8.72335 8.17977 9.02341 8.2236L11.5948 8.59932C12.3505 8.70969 12.6523 9.64376 12.1055 10.1798L10.2448 12.0037C10.0277 12.2166 9.92848 12.5233 9.97985 12.8238L10.4191 15.3993C10.5481 16.1562 9.75824 16.7334 9.08218 16.3762L6.78221 15.1601C6.51385 15.0181 6.19305 15.0181 5.92469 15.1601L3.62472 16.3762C2.94879 16.7336 2.15876 16.1564 2.28779 15.3993L2.72705 12.8238C2.77829 12.5233 2.67924 12.2166 2.46212 12.0037L0.60154 10.1799C0.0546443 9.64389 0.356421 8.70996 1.11225 8.59946L3.68362 8.22373C3.98368 8.1799 4.24319 7.99038 4.37738 7.71692L5.5273 5.37371C5.86526 4.68494 6.84177 4.68494 7.17974 5.37357Z" fill="#32E3B5"/>
<path d="M21.6691 2.13549L22.819 4.4787C22.9532 4.75217 23.2127 4.94169 23.5128 4.98552L26.0842 5.36124C26.8399 5.47174 27.1416 6.40568 26.5949 6.94171L24.7342 8.76563C24.5171 8.97853 24.4179 9.28519 24.4692 9.58574L24.9085 12.1612C25.0375 12.9181 24.2476 13.4953 23.5716 13.1381L21.2716 11.922C21.0032 11.7801 20.6824 11.7801 20.4141 11.922L18.1141 13.1381C17.4382 13.4955 16.6481 12.9183 16.7772 12.1612L17.2164 9.58574C17.2677 9.28519 17.1686 8.97853 16.9515 8.76563L15.0908 6.94171C14.5439 6.40568 14.8457 5.47174 15.6015 5.36124L18.1729 4.98552C18.4729 4.94169 18.7325 4.75217 18.8666 4.4787L20.0166 2.13549C20.3547 1.44686 21.3312 1.44686 21.6691 2.13549Z" fill="#32E3B5"/>
<path d="M53.0646 5.37359L54.2146 7.7168C54.3487 7.99026 54.6083 8.17979 54.9083 8.22362L57.4797 8.59934C58.2354 8.70984 58.5372 9.64378 57.9904 10.1798L56.1297 12.0037C55.9126 12.2166 55.8134 12.5233 55.8648 12.8238L56.304 15.3993C56.4332 16.1562 55.6432 16.7334 54.9671 16.3762L52.6671 15.1601C52.3988 15.0182 52.078 15.0182 51.8096 15.1601L49.5096 16.3762C48.8337 16.7336 48.0437 16.1564 48.1727 15.3993L48.612 12.8238C48.6632 12.5233 48.5641 12.2166 48.347 12.0037L46.4863 10.1798C45.9394 9.64378 46.2412 8.70984 46.9969 8.59934L49.5684 8.22362C49.8685 8.17979 50.128 7.99026 50.2622 7.7168L51.4121 5.37359C51.7502 4.68496 52.7267 4.68496 53.0646 5.37359Z" fill="#32E3B5"/>
<path d="M50.3161 68H24.1071C23.5965 68 23.1826 67.5837 23.1826 67.0703V61.8052C23.1826 61.2918 23.5965 60.8755 24.1071 60.8755H50.3162C50.8268 60.8755 51.2407 61.2918 51.2407 61.8052V67.0703C51.2406 67.5837 50.8267 68 50.3161 68Z" fill="#4747D9"/>
</svg>
