<svg width="258" height="286" viewBox="0 0 258 286" fill="none" xmlns="http://www.w3.org/2000/svg">
<g clip-path="url(#clip0_45_473)">
<path opacity="0.5" d="M6.53653 89.2511C6.53653 89.2511 -11.1731 135.737 13.7144 182.558C38.5955 229.386 89.8631 254.105 130.891 275.252C171.919 296.399 214.523 286.1 234.767 251.464C255.011 216.827 227.24 192.102 227.208 142.711C227.176 93.3191 234.481 80.2432 208.177 38.5165C181.873 -3.21022 117.304 -12.4505 68.4947 18.499C19.6853 49.4486 6.53653 89.2511 6.53653 89.2511Z" fill="#32E3B5"/>
<path opacity="0.75" d="M10.36 103.179C32.859 80.3206 51.9089 99.4986 59.9316 68.8009C78.0604 -0.536974 153.25 0.134583 163.14 49.4615C180.958 138.339 258.542 81.8962 257.964 145.558C257.348 213.521 208.183 266.457 120.003 271.746C40.9452 276.485 -26.9204 141.057 10.36 103.179Z" fill="#4747D9"/>
<path opacity="0.7" d="M10.36 103.179C32.859 80.3206 51.9089 99.4986 59.9316 68.8009C78.0604 -0.536971 153.25 0.134579 163.14 49.4615C180.958 138.339 258.542 81.8962 257.964 145.558C257.348 213.521 208.183 266.457 120.003 271.746C40.9452 276.485 -26.9204 141.057 10.36 103.179Z" fill="white"/>
<path d="M84.3617 253.917C84.3617 253.917 77.2918 258.805 74.4461 258.483C74.0903 258.444 73.8172 258.334 73.6076 258.121C71.7464 256.171 70.26 252.755 70.26 252.755C70.26 252.755 71.143 251.509 73.8744 254.815L75.6085 253.194L72.0259 249.533C72.0259 249.533 74.0395 247.906 77.4633 249.978C77.349 249.727 75.1384 244.845 76.8027 238.194L68.4561 230.019L75.8435 223.478L76.4152 222.974C76.4152 222.974 76.8789 223.439 77.6348 224.162C78.3653 224.866 79.3626 225.802 80.4551 226.771C83.0595 229.096 86.2101 231.62 87.5758 231.595C90.104 231.543 84.3617 253.917 84.3617 253.917Z" fill="white"/>
<path d="M84.3617 253.917C84.3617 253.917 77.2918 258.805 74.4461 258.483C74.0903 258.444 73.8172 258.334 73.6076 258.121C71.7464 256.171 70.26 252.755 70.26 252.755C70.26 252.755 71.143 251.509 73.8744 254.815L75.6085 253.194L72.0259 249.533C72.0259 249.533 74.0395 247.906 77.4633 249.978C77.349 249.727 75.1384 244.845 76.8027 238.194L68.4561 230.019L75.8435 223.478L76.4152 222.974C76.4152 222.974 76.8789 223.439 77.6348 224.162C78.3653 224.866 79.3626 225.802 80.4551 226.771C83.0595 229.096 86.2101 231.62 87.5758 231.595C90.104 231.543 84.3617 253.917 84.3617 253.917Z" stroke="#232323" stroke-width="0.5" stroke-miterlimit="10" stroke-linecap="round" stroke-linejoin="round"/>
<path d="M75.6084 253.194C75.6084 253.194 76.2245 251.231 77.4695 249.985" stroke="#232323" stroke-width="0.5" stroke-miterlimit="10" stroke-linecap="round" stroke-linejoin="round"/>
<path d="M207.541 196.971C206.538 198.521 205.172 199.98 203.539 201.355C203.539 201.355 203.533 201.355 203.533 201.362C190.53 212.307 160.555 217.712 160.555 217.712C160.555 217.712 159.551 219.242 158.008 221.418C155.238 225.331 150.696 231.336 146.993 234.345H146.987C145.424 235.624 144.008 236.36 142.941 236.16L148.562 257.275L151.078 266.444C151.078 266.444 125.231 277.906 81.0141 264.798C81.0141 264.798 80.5123 258.935 80.8871 257.682C80.9062 257.624 80.9252 257.559 80.9443 257.501C81.3572 256.494 82.6784 255.286 82.6784 255.286C82.6784 255.286 82.4307 251.515 82.3036 247.673C82.202 244.69 82.1766 241.668 82.3925 240.325C82.7038 238.388 84.1013 233.706 84.8 231.407C85.0477 230.594 85.2129 230.077 85.2129 230.077L83.015 209.13L82.3798 203.099C82.3798 203.099 82.3671 202.989 82.3481 202.782C82.3481 202.737 82.3417 202.692 82.3354 202.634L81.986 199.399L70.6158 202.931C70.6158 202.931 71.2192 204.28 72.0323 206.185C73.525 209.659 75.7229 214.954 76.212 217.046C76.2501 217.221 76.3009 217.382 76.3581 217.55C77.4125 220.604 81.4207 223.375 81.4207 223.375L70.6539 236.166L67.4715 233.906C67.4715 233.906 67.0078 234.274 66.1884 234.726C64.0922 235.882 59.7029 237.58 54.9071 234.985C53.1539 234.035 51.3499 232.518 49.5841 230.2C41.0977 219.029 37.4516 209.931 38.6458 199.224C39.84 188.512 87.1439 155.573 96.5259 155.916L110.488 159.054C110.786 158.802 111.606 158.143 112.235 158.176C114.775 158.305 114.839 161.308 114.839 161.308L146.123 166.473C146.123 166.473 149.363 164.827 149.928 164.853C151.313 164.924 151.903 166.131 151.903 166.131C151.903 166.131 160.009 161.198 162.619 162.347C171.201 166.105 213.874 187.188 207.541 196.971Z" fill="#4747D9"/>
<path opacity="0.2" d="M98.8504 249.242C98.8504 249.242 93.991 255.306 85.3077 256.707C83.6625 256.972 82.2143 257.243 80.9502 257.508C81.3631 256.5 82.6843 255.293 82.6843 255.293C82.6843 255.293 82.4366 251.522 82.3095 247.68C85.9874 250.12 92.3776 252.962 98.8504 249.242Z" fill="black"/>
<path opacity="0.2" d="M84.8123 231.42C85.06 230.607 85.2252 230.09 85.2252 230.09L83.0273 209.143C86.3177 213.934 98.0437 230.271 106.13 232.034C114.572 233.874 91.9774 237.122 84.8123 231.42Z" fill="black"/>
<path opacity="0.2" d="M148.561 257.288C139.732 256.268 127.244 254.008 125.992 249.307C124.049 241.971 133.513 237.567 146.98 234.352C145.417 235.63 144.001 236.366 142.933 236.166L148.561 257.288Z" fill="black"/>
<path opacity="0.2" d="M203.533 201.362C190.53 212.307 160.555 217.712 160.555 217.712C160.555 217.712 159.551 219.242 158.007 221.418C155.473 215.4 151.82 202.95 156.095 187.647C156.095 187.647 158.408 200.361 167.993 203.383C167.993 203.383 160.656 197.83 163.216 184.45C163.216 184.45 165.719 200.193 182.012 204.539C189.933 206.657 197.67 204.319 203.533 201.362Z" fill="black"/>
<path opacity="0.2" d="M82.3608 202.795L81.9987 199.412L70.6285 202.944C70.6285 202.944 71.2319 204.293 72.045 206.198C67.6938 205.74 59.4488 209.847 58.0069 205.378C56.2728 199.98 66.9506 201.84 66.9506 201.84L77.025 195.879C75.1194 187.595 79.966 181.37 79.966 181.37L80.8871 187.149C81.3317 176.166 85.5559 170.154 85.5559 170.154C82.0368 178.839 82.1384 200.219 82.3608 202.795Z" fill="black"/>
<path opacity="0.2" d="M81.4267 223.387L70.6599 236.179L67.4775 233.919C67.4775 233.919 67.0138 234.287 66.1944 234.739C64.0982 235.895 59.7089 237.593 54.9131 234.998C58.4004 230.09 65.61 222.864 74.1853 220.075C74.1853 220.075 70.6535 225.325 68.4621 230.013L70.6726 232.227C70.6726 232.234 76.1925 225.835 81.4267 223.387Z" fill="black"/>
<path opacity="0.2" d="M107.578 167.035C107.571 168.159 106.879 180.963 116.039 184.347C125.199 187.73 133.342 181.99 133.342 181.99C133.342 181.99 119.291 195.763 110.748 188.402C102.198 181.047 107.578 167.035 107.578 167.035Z" fill="black"/>
<path d="M81.0205 264.804C81.0205 264.804 80.525 258.941 80.8935 257.688C81.2047 256.642 82.6847 255.293 82.6847 255.293C82.6847 255.293 81.9098 243.405 82.4052 240.338C82.8308 237.71 85.2256 230.084 85.2256 230.084L81.9987 199.412L70.6285 202.944C70.6285 202.944 75.4688 213.818 76.2183 217.059C76.9679 220.301 81.427 223.394 81.427 223.394L70.6539 236.186L67.4715 233.932C67.4715 233.932 58.0768 241.403 49.5841 230.226C41.0977 219.048 37.4516 209.956 38.6458 199.244C39.84 188.531 87.1439 155.593 96.5323 155.935L110.494 159.073C110.799 158.821 111.612 158.163 112.241 158.195C114.782 158.324 114.845 161.327 114.845 161.327L146.129 166.486C146.129 166.486 149.375 164.84 149.941 164.865C151.325 164.936 151.916 166.138 151.916 166.138C151.916 166.138 160.021 161.204 162.632 162.354C171.201 166.112 213.874 187.195 207.541 196.977C198.553 210.867 160.555 217.718 160.555 217.718C160.555 217.718 147.914 237.096 142.941 236.173L151.084 266.464" stroke="#263238" stroke-miterlimit="10" stroke-linecap="round" stroke-linejoin="round"/>
<path d="M174.485 199.089C188.841 208.73 200.415 206.947 209.473 194.543C209.473 194.543 217.012 184.663 216.479 173.996C215.945 163.335 213.443 128.556 180.755 137.448C175.375 138.914 162.823 156.006 161.762 160.701C161.279 162.844 156.236 173.776 151.345 185.083" fill="#4747D9"/>
<path d="M174.485 199.089C188.841 208.73 200.415 206.947 209.473 194.543C209.473 194.543 217.012 184.663 216.479 173.996C215.945 163.335 213.443 128.556 180.755 137.448C175.375 138.914 162.823 156.006 161.762 160.701C161.279 162.844 156.236 173.776 151.345 185.083" stroke="#263238" stroke-miterlimit="10" stroke-linecap="round" stroke-linejoin="round"/>
<path d="M135.425 97.7551C135.425 97.7551 144.566 95.8429 150.925 103.693C158.96 113.623 167.98 140.394 155.13 184.76C155.13 184.76 136.156 167.357 103.767 178.997C103.767 178.997 106.555 168.585 101.658 135.832C99.4472 121.017 105.012 86.8696 135.425 97.7551Z" fill="#232323"/>
<path d="M121.77 178.916C135.306 181.144 149.694 165.911 149.694 165.911C149.694 165.911 142.332 164.988 141.677 161.475C139.568 150.395 148.061 136.705 148.061 136.705C148.061 136.705 115.196 137.629 120.938 145.19C122.145 146.779 122.971 148.296 123.536 149.723C125.53 154.702 124.146 158.453 123.085 159.37C123.009 159.435 122.92 159.493 122.843 159.532C120.855 160.455 112.687 159.08 112.687 159.08C112.687 159.08 109.422 176.882 121.77 178.916Z" fill="white" stroke="#263238" stroke-miterlimit="10" stroke-linecap="round" stroke-linejoin="round"/>
<path d="M145.03 170.128C145.03 170.128 138.786 172.666 129.645 171.91L125.529 173.964" stroke="#232323" stroke-width="0.5" stroke-miterlimit="10" stroke-linecap="round" stroke-linejoin="round"/>
<path d="M121.426 173.628L121.121 170.877C121.121 170.877 114.382 168.733 112.292 164.652" stroke="#232323" stroke-width="0.5" stroke-miterlimit="10" stroke-linecap="round" stroke-linejoin="round"/>
<path d="M123.084 159.377C133.152 162.05 137.878 148.929 137.878 148.929C137.878 148.929 129.824 146.488 123.535 149.73C125.523 154.702 124.145 158.46 123.084 159.377Z" fill="#232323"/>
<path d="M148.632 129.809C151.083 115.836 148.358 99.0661 127.441 100.454C112.495 101.449 112.615 118.109 113.606 123.081C115.27 131.443 112.888 134.736 115.448 141.761C117.29 146.811 121.572 152.455 126.609 154.573C129.709 155.877 142.254 146.927 143.181 142.833" fill="white"/>
<path d="M148.632 129.809C151.084 115.836 148.358 99.0661 127.441 100.454C112.495 101.449 112.615 118.109 113.606 123.081C115.27 131.443 112.888 134.736 115.448 141.761C117.29 146.811 121.572 152.455 126.609 154.573C129.709 155.877 142.254 146.927 143.181 142.833" stroke="#232323" stroke-width="0.5" stroke-miterlimit="10" stroke-linecap="round" stroke-linejoin="round"/>
<path d="M122.347 125.689C122.22 127.258 122.043 131.146 118.771 134.013C116.656 135.866 121.509 137.764 121.509 137.764" stroke="#263238" stroke-miterlimit="10" stroke-linecap="round" stroke-linejoin="round"/>
<path d="M118.873 120.142C118.873 120.142 114.255 117.857 111.136 121.628" stroke="#263238" stroke-miterlimit="10" stroke-linecap="round" stroke-linejoin="round"/>
<path d="M126.615 119.845C126.615 119.845 131.074 118.218 136.486 120.239" stroke="#263238" stroke-miterlimit="10" stroke-linecap="round" stroke-linejoin="round"/>
<path d="M121.737 142.175C127.543 141.458 132.059 138.339 132.059 138.339C132.059 138.339 132.491 144.202 127.664 145.423C123.961 146.359 122.525 142.058 122.525 142.058" stroke="#263238" stroke-miterlimit="10" stroke-linecap="round" stroke-linejoin="round"/>
<path d="M134.367 110.708C134.367 110.708 132.975 137.166 148.123 146.783L155.219 121.347L144.482 103.011L128.223 98.714C104.051 101.036 93.7219 121.285 107.143 182.981C107.143 182.981 103.388 109.512 134.367 110.708Z" fill="#232323"/>
<path d="M145.227 129.054C145.03 127.194 149.661 122.454 151.223 125.496C153.891 130.681 151.947 135.201 149.184 136.97C147.946 137.764 146.377 139.25 145.278 137.848" fill="white"/>
<path d="M145.227 129.054C145.03 127.194 149.661 122.454 151.223 125.496C153.891 130.681 151.947 135.201 149.184 136.97C147.946 137.764 146.377 139.25 145.278 137.848" stroke="#263238" stroke-miterlimit="10" stroke-linecap="round" stroke-linejoin="round"/>
<g opacity="0.2">
<path opacity="0.2" d="M107.451 124.34C107.28 125.463 107.159 126.593 107.096 127.73" stroke="white" stroke-miterlimit="10" stroke-linecap="round" stroke-linejoin="round"/>
<path opacity="0.2" d="M132.936 102.766C121.318 102.456 110.52 109.985 107.947 121.808" stroke="white" stroke-miterlimit="10" stroke-linecap="round" stroke-linejoin="round"/>
<path opacity="0.2" d="M130.859 99.3889C130.859 99.3889 114.103 95.3854 107.82 106.679" stroke="white" stroke-miterlimit="10" stroke-linecap="round" stroke-linejoin="round"/>
<path opacity="0.2" d="M144.452 119.077C145.475 120.523 146.669 121.86 148.066 122.951" stroke="white" stroke-miterlimit="10" stroke-linecap="round" stroke-linejoin="round"/>
<path opacity="0.2" d="M137.808 101.597C138.703 106.924 140.431 112.329 143.124 116.991" stroke="white" stroke-miterlimit="10" stroke-linecap="round" stroke-linejoin="round"/>
<path opacity="0.2" d="M154.647 152.842C154.349 154.198 153.999 155.541 153.605 156.871" stroke="white" stroke-miterlimit="10" stroke-linecap="round" stroke-linejoin="round"/>
<path opacity="0.2" d="M153.676 130.332C156.394 136.466 156.21 144.099 155.092 150.556" stroke="white" stroke-miterlimit="10" stroke-linecap="round" stroke-linejoin="round"/>
<path opacity="0.2" d="M151.681 141.019C151.681 141.019 152.513 147.863 146.955 153.643" stroke="white" stroke-miterlimit="10" stroke-linecap="round" stroke-linejoin="round"/>
<path opacity="0.2" d="M143.15 102.107C146.002 106.027 148.118 110.231 151.421 113.808C154.902 117.579 158.376 121.892 159.031 127.2" stroke="white" stroke-miterlimit="10" stroke-linecap="round" stroke-linejoin="round"/>
<path opacity="0.2" d="M139.936 99.4986C140.755 100.041 141.498 100.687 142.171 101.403" stroke="white" stroke-miterlimit="10" stroke-linecap="round" stroke-linejoin="round"/>
</g>
<path d="M197.264 190.423C196.933 190.501 196.597 190.559 196.254 190.604C187.259 191.908 177.172 184.334 173.767 175.223C171.08 168.036 173.431 159.88 174.714 156.387C175.12 155.296 175.412 154.657 175.412 154.657C180.837 146.779 212.375 162.186 212.737 170.677C213.106 179.168 206.506 188.363 197.264 190.423Z" fill="#232323" stroke="#263238" stroke-miterlimit="10" stroke-linecap="round" stroke-linejoin="round"/>
<path d="M207.128 171.833C207.128 171.833 205.337 185.322 196.254 190.604C187.259 191.908 177.172 184.334 173.767 175.223C171.08 168.036 173.431 159.88 174.714 156.387C174.714 156.381 174.72 156.381 174.72 156.381C185.347 150.22 207.128 171.833 207.128 171.833Z" fill="white"/>
<path d="M207.128 171.833C207.128 171.833 205.337 185.322 196.254 190.604C187.259 191.908 177.172 184.334 173.767 175.223C171.08 168.036 173.431 159.88 174.714 156.387C174.714 156.381 174.72 156.381 174.72 156.381C185.347 150.22 207.128 171.833 207.128 171.833Z" stroke="#263238" stroke-miterlimit="10" stroke-linecap="round" stroke-linejoin="round"/>
<path d="M169.943 178.936C169.943 178.936 180.183 193.878 192.144 195.124C204.105 196.37 211.746 186.129 212.248 178.406" stroke="#263238" stroke-miterlimit="10" stroke-linecap="round" stroke-linejoin="round"/>
<path d="M164.183 111.49C165.085 108.926 171.545 109.785 173.59 117.773C175.635 125.76 183.722 145.151 183.722 145.151C183.722 145.151 215.819 97.1353 221.574 95.2886C227.329 93.4353 225.048 101.759 217.362 113.304C217.362 113.304 224.566 112.013 226.452 113.311C228.345 114.602 227.424 122.357 228.428 125.076C230.117 129.628 226.363 130.59 226.363 130.59C226.363 130.59 229.317 130.564 231.375 132.528C233.439 134.491 232.404 142.614 232.988 144.912C233.579 147.211 229.641 149.148 229.641 149.148C229.641 149.148 239.105 154.398 236.965 155.709C233.363 157.924 231.305 155.657 231.305 155.657C231.305 155.657 216.765 174.222 205.801 178.355C194.838 182.487 173.482 166.06 171.189 157.11C168.896 148.16 171.634 148.716 169.893 133.819C168.165 118.929 164.183 111.49 164.183 111.49Z" fill="white" stroke="#263238" stroke-miterlimit="10" stroke-linecap="round" stroke-linejoin="round"/>
<path d="M211.009 82.006L168.724 93.2094C167.224 93.6097 166.322 95.1659 166.71 96.6963L186.694 174.655C187.087 176.178 188.618 177.095 190.124 176.702L232.409 165.498C233.909 165.098 234.811 163.542 234.423 162.011L214.439 84.053C214.046 82.5226 212.508 81.6057 211.009 82.006Z" fill="white" stroke="#232323" stroke-width="0.5" stroke-miterlimit="10" stroke-linecap="round" stroke-linejoin="round"/>
<path d="M186.782 90.9493C186.878 91.3239 186.655 91.7048 186.293 91.8017C185.925 91.8985 185.55 91.6725 185.455 91.3045C185.359 90.93 185.582 90.549 185.944 90.4521C186.312 90.3488 186.687 90.5748 186.782 90.9493Z" fill="#92E3A9" stroke="#263238" stroke-miterlimit="10" stroke-linecap="round" stroke-linejoin="round"/>
<path d="M195.49 88.6376C195.548 88.87 195.414 89.109 195.179 89.1735C194.95 89.2316 194.715 89.096 194.652 88.8571C194.595 88.6247 194.728 88.3857 194.963 88.3212C195.198 88.263 195.433 88.4051 195.49 88.6376Z" fill="#92E3A9" stroke="#263238" stroke-miterlimit="10" stroke-linecap="round" stroke-linejoin="round"/>
<path d="M193.224 89.4964L188.148 90.8395C188.04 90.8654 187.932 90.8008 187.901 90.691L187.882 90.6071C187.856 90.4973 187.92 90.3875 188.028 90.3552L193.103 89.0121C193.211 88.9863 193.319 89.0509 193.351 89.1606L193.37 89.2446C193.395 89.3544 193.332 89.4706 193.224 89.4964Z" fill="#92E3A9" stroke="#263238" stroke-miterlimit="10" stroke-linecap="round" stroke-linejoin="round"/>
<path d="M213.163 84.8344L232.988 162.153C233.216 163.057 232.689 163.981 231.8 164.213L190.054 175.275C189.165 175.507 188.256 174.971 188.028 174.067L168.203 96.748C167.974 95.844 168.501 94.9206 169.391 94.6881L177.96 92.4152C178.525 92.2667 179.122 92.4862 179.452 92.9705L180.068 93.8681C180.405 94.3523 181.002 94.5784 181.561 94.4234L200.376 89.4384C200.941 89.2899 201.354 88.7991 201.411 88.2115L201.519 87.1202C201.577 86.5326 201.989 86.0419 202.555 85.8934L211.124 83.6204C212.026 83.3879 212.934 83.9303 213.163 84.8344Z" fill="white" stroke="#232323" stroke-width="0.5" stroke-miterlimit="10" stroke-linecap="round" stroke-linejoin="round"/>
<path d="M215.983 128.853C220.19 119.004 215.747 107.553 206.058 103.276C196.369 98.999 185.105 103.516 180.897 113.365C176.69 123.214 181.133 134.665 190.822 138.942C200.511 143.219 211.775 138.702 215.983 128.853Z" fill="white" stroke="#232323" stroke-width="0.5" stroke-miterlimit="10" stroke-linecap="round" stroke-linejoin="round"/>
<path d="M220.266 153.945L196.471 160.247C193.619 161.002 190.703 159.265 189.96 156.366C189.217 153.467 190.925 150.503 193.778 149.747L217.572 143.445C220.424 142.69 223.34 144.427 224.083 147.326C224.826 150.225 223.118 153.189 220.266 153.945Z" fill="#4747D9"/>
<path d="M160.555 217.711C160.555 217.711 153.333 200.632 157.017 179.917" stroke="#263238" stroke-miterlimit="10" stroke-linecap="round" stroke-linejoin="round"/>
<path d="M142.941 236.166C142.941 236.166 128.344 240.706 126.864 244.115C125.384 247.531 133.413 244.658 133.413 244.658" stroke="#263238" stroke-miterlimit="10" stroke-linecap="round" stroke-linejoin="round"/>
<path d="M151.916 166.131C151.916 166.131 138.475 179.672 129.48 183.288" stroke="#263238" stroke-miterlimit="10" stroke-linecap="round" stroke-linejoin="round"/>
<path d="M107.87 162.489C107.87 162.489 105.425 180.77 114.565 184.224" stroke="#263238" stroke-miterlimit="10" stroke-linecap="round" stroke-linejoin="round"/>
<path d="M81.9991 199.412C81.9991 199.412 81.9229 175.442 86.6107 168.029" stroke="#263238" stroke-miterlimit="10" stroke-linecap="round" stroke-linejoin="round"/>
<path d="M80.2513 174.99C80.2513 174.99 78.9365 189.874 81.8838 194.73" stroke="#263238" stroke-miterlimit="10" stroke-linecap="round" stroke-linejoin="round"/>
<path d="M70.6285 202.944C70.6285 202.944 60.408 199.366 58.2864 203.803C56.1648 208.239 64.3844 204.306 64.3844 204.306" stroke="#263238" stroke-miterlimit="10" stroke-linecap="round" stroke-linejoin="round"/>
<path d="M76.7778 218.486C76.7778 218.486 66.7416 224.233 66.2207 227.526" stroke="#263238" stroke-miterlimit="10" stroke-linecap="round" stroke-linejoin="round"/>
<path d="M93.1719 202.582C93.1719 202.582 112.387 232.105 122.995 229.393" stroke="#263238" stroke-miterlimit="10" stroke-linecap="round" stroke-linejoin="round"/>
<path d="M106.302 243.992C106.302 243.992 91.2344 255.222 89.043 254.272" stroke="#263238" stroke-miterlimit="10" stroke-linecap="round" stroke-linejoin="round"/>
<path opacity="0.2" d="M211.842 196.08C212.858 195.234 213.531 194.672 213.747 194.491C213.519 194.698 212.858 195.279 211.842 196.08Z" fill="black"/>
<path d="M198.158 160.977L196.311 154.081L197.444 153.781L199.033 159.714L201.964 158.937L202.222 159.899L198.158 160.977ZM203.959 153.74C204.424 153.617 204.85 153.607 205.235 153.71C205.62 153.814 205.949 154.018 206.223 154.322C206.496 154.627 206.699 155.024 206.83 155.515L206.989 156.109L203.502 157.034C203.65 157.537 203.89 157.891 204.221 158.096C204.555 158.3 204.957 158.34 205.426 158.216C205.759 158.128 206.05 158.017 206.297 157.884C206.547 157.747 206.797 157.578 207.046 157.377L207.288 158.278C207.059 158.47 206.817 158.63 206.562 158.758C206.307 158.887 205.99 159.001 205.612 159.101C205.1 159.237 204.622 159.258 204.178 159.163C203.737 159.065 203.354 158.846 203.027 158.509C202.704 158.17 202.464 157.707 202.306 157.119C202.149 156.534 202.115 156.011 202.204 155.549C202.293 155.088 202.488 154.703 202.789 154.394C203.091 154.085 203.48 153.867 203.959 153.74ZM204.182 154.575C203.833 154.668 203.58 154.856 203.424 155.14C203.271 155.423 203.234 155.788 203.313 156.235L205.692 155.605C205.619 155.344 205.513 155.125 205.374 154.946C205.238 154.767 205.07 154.643 204.87 154.575C204.673 154.506 204.444 154.506 204.182 154.575ZM210.602 156.818C210.746 156.78 210.886 156.729 211.021 156.667C211.155 156.601 211.275 156.533 211.382 156.465L211.607 157.304C211.498 157.39 211.351 157.478 211.167 157.568C210.982 157.657 210.784 157.73 210.573 157.786C210.277 157.864 209.998 157.886 209.736 157.851C209.473 157.813 209.24 157.691 209.037 157.486C208.833 157.28 208.674 156.964 208.56 156.536L207.808 153.73L207.095 153.919L206.962 153.424L207.622 152.83L207.686 151.615L208.385 151.43L208.695 152.59L210.192 152.194L210.418 153.038L208.922 153.435L209.67 156.227C209.741 156.491 209.859 156.67 210.026 156.764C210.193 156.858 210.385 156.876 210.602 156.818ZM211.735 149.991L211.833 150.076C211.838 150.321 211.83 150.586 211.809 150.871C211.79 151.155 211.764 151.441 211.731 151.73C211.697 152.018 211.657 152.293 211.613 152.554L210.81 152.767C210.805 152.57 210.798 152.363 210.791 152.146C210.782 151.926 210.772 151.706 210.761 151.487C210.748 151.265 210.733 151.051 210.716 150.847C210.697 150.64 210.678 150.45 210.659 150.276L211.735 149.991ZM217.676 154.205C217.768 154.547 217.762 154.859 217.658 155.139C217.555 155.419 217.359 155.663 217.071 155.87C216.785 156.074 216.411 156.237 215.949 156.36C215.584 156.457 215.262 156.514 214.983 156.53C214.708 156.549 214.44 156.536 214.179 156.491L213.922 155.533C214.202 155.584 214.508 155.611 214.839 155.614C215.173 155.616 215.478 155.581 215.755 155.507C216.12 155.41 216.368 155.284 216.498 155.128C216.627 154.969 216.666 154.794 216.615 154.602C216.585 154.489 216.525 154.397 216.435 154.327C216.348 154.252 216.203 154.191 216.002 154.144C215.802 154.092 215.516 154.043 215.144 153.997C214.778 153.953 214.464 153.895 214.202 153.823C213.94 153.751 213.726 153.637 213.56 153.483C213.393 153.325 213.27 153.1 213.192 152.807C213.068 152.345 213.157 151.946 213.458 151.61C213.761 151.271 214.215 151.021 214.819 150.861C215.14 150.775 215.451 150.728 215.751 150.719C216.055 150.706 216.359 150.725 216.666 150.775L216.541 151.702C216.277 151.661 216.016 151.639 215.76 151.636C215.505 151.63 215.255 151.659 215.01 151.724C214.723 151.8 214.516 151.902 214.389 152.03C214.265 152.157 214.224 152.303 214.268 152.466C214.301 152.589 214.365 152.683 214.46 152.749C214.555 152.815 214.702 152.867 214.901 152.905C215.103 152.942 215.38 152.981 215.732 153.023C216.075 153.06 216.378 153.114 216.64 153.186C216.904 153.254 217.123 153.366 217.296 153.522C217.469 153.679 217.596 153.906 217.676 154.205ZM203.523 175.489C202.815 175.677 202.238 175.693 201.792 175.539C201.346 175.384 201.062 175.077 200.939 174.618C200.853 174.297 200.881 173.999 201.022 173.722C201.165 173.449 201.412 173.22 201.764 173.036C201.605 173.01 201.456 172.945 201.317 172.841C201.18 172.732 201.09 172.596 201.046 172.433C200.994 172.238 201.004 172.057 201.077 171.889C201.15 171.721 201.28 171.544 201.465 171.357C201.16 171.313 200.89 171.183 200.653 170.966C200.419 170.745 200.254 170.457 200.159 170.102C200.058 169.725 200.052 169.383 200.141 169.076C200.23 168.766 200.41 168.501 200.682 168.281C200.952 168.058 201.306 167.888 201.743 167.772C201.838 167.747 201.942 167.726 202.055 167.71C202.171 167.689 202.278 167.674 202.377 167.665C202.478 167.652 202.555 167.646 202.61 167.648L204.418 167.169L204.583 167.787L203.74 168.187C203.857 168.284 203.961 168.403 204.053 168.544C204.144 168.681 204.213 168.84 204.261 169.019C204.406 169.56 204.333 170.036 204.042 170.446C203.753 170.853 203.282 171.143 202.627 171.316C202.468 171.352 202.312 171.38 202.159 171.4C202.065 171.499 201.999 171.599 201.962 171.7C201.924 171.798 201.919 171.898 201.947 172.002C201.969 172.087 202.018 172.148 202.092 172.186C202.165 172.22 202.263 172.235 202.387 172.229C202.513 172.222 202.661 172.196 202.831 172.151L203.732 171.912C204.305 171.761 204.775 171.766 205.142 171.928C205.509 172.09 205.755 172.405 205.88 172.873C206.04 173.468 205.917 173.99 205.512 174.441C205.108 174.895 204.445 175.244 203.523 175.489ZM203.357 174.699C203.744 174.597 204.059 174.473 204.304 174.327C204.548 174.182 204.718 174.02 204.816 173.843C204.914 173.668 204.937 173.485 204.886 173.294C204.84 173.124 204.763 173.005 204.654 172.936C204.544 172.867 204.4 172.838 204.221 172.849C204.042 172.859 203.826 172.898 203.574 172.965L202.753 173.182C202.549 173.237 202.376 173.316 202.236 173.421C202.096 173.528 201.999 173.655 201.943 173.801C201.891 173.946 201.888 174.105 201.935 174.278C201.999 174.517 202.154 174.673 202.399 174.746C202.647 174.818 202.967 174.803 203.357 174.699ZM202.485 170.576C202.809 170.49 203.026 170.338 203.136 170.121C203.245 169.9 203.257 169.627 203.17 169.303C203.075 168.951 202.923 168.709 202.712 168.576C202.504 168.443 202.242 168.418 201.924 168.502C201.612 168.585 201.399 168.737 201.283 168.96C201.171 169.182 201.162 169.469 201.256 169.821C201.341 170.139 201.488 170.366 201.696 170.502C201.907 170.635 202.17 170.66 202.485 170.576ZM207.427 166.27C207.893 166.146 208.318 166.136 208.703 166.24C209.088 166.343 209.417 166.547 209.691 166.852C209.965 167.156 210.167 167.554 210.299 168.044L210.458 168.639L206.97 169.564C207.118 170.066 207.358 170.42 207.689 170.626C208.024 170.83 208.425 170.87 208.894 170.746C209.228 170.657 209.518 170.546 209.766 170.413C210.016 170.276 210.265 170.108 210.515 169.907L210.756 170.808C210.528 170.999 210.286 171.16 210.03 171.288C209.775 171.416 209.458 171.53 209.081 171.631C208.568 171.767 208.09 171.787 207.647 171.693C207.206 171.594 206.822 171.376 206.496 171.038C206.172 170.7 205.932 170.236 205.775 169.648C205.618 169.063 205.584 168.54 205.672 168.079C205.761 167.618 205.956 167.233 206.258 166.924C206.559 166.615 206.949 166.397 207.427 166.27ZM207.651 167.105C207.302 167.197 207.049 167.386 206.892 167.67C206.739 167.953 206.702 168.318 206.781 168.765L209.16 168.134C209.087 167.874 208.981 167.655 208.842 167.476C208.706 167.296 208.538 167.172 208.338 167.104C208.141 167.035 207.912 167.036 207.651 167.105ZM214.07 169.348C214.215 169.309 214.355 169.259 214.49 169.196C214.624 169.13 214.744 169.063 214.85 168.994L215.075 169.834C214.967 169.92 214.82 170.008 214.635 170.097C214.45 170.187 214.252 170.259 214.041 170.315C213.746 170.394 213.467 170.415 213.204 170.38C212.942 170.342 212.708 170.221 212.505 170.015C212.302 169.81 212.143 169.493 212.028 169.066L211.276 166.26L210.564 166.449L210.431 165.953L211.091 165.359L211.155 164.145L211.853 163.96L212.164 165.12L213.66 164.723L213.886 165.567L212.39 165.964L213.138 168.756C213.209 169.02 213.328 169.199 213.494 169.293C213.661 169.387 213.853 169.405 214.07 169.348ZM204.484 180.606L205.883 185.827L204.774 186.121L203.375 180.9L204.484 180.606ZM203.401 178.751C203.571 178.706 203.73 178.713 203.877 178.771C204.027 178.829 204.132 178.97 204.192 179.193C204.251 179.413 204.23 179.587 204.13 179.715C204.031 179.839 203.897 179.923 203.727 179.968C203.551 180.015 203.389 180.009 203.242 179.95C203.097 179.887 202.995 179.746 202.936 179.526C202.877 179.303 202.894 179.13 202.989 179.007C203.088 178.883 203.225 178.798 203.401 178.751ZM209.204 184.088C209.348 184.049 209.488 183.999 209.623 183.936C209.757 183.87 209.877 183.803 209.984 183.734L210.208 184.574C210.1 184.66 209.953 184.747 209.768 184.837C209.583 184.926 209.386 184.999 209.175 185.055C208.879 185.133 208.6 185.155 208.338 185.12C208.075 185.082 207.842 184.961 207.639 184.755C207.435 184.55 207.276 184.233 207.162 183.806L206.41 180.999L205.697 181.188L205.564 180.693L206.224 180.099L206.288 178.885L206.987 178.699L207.297 179.86L208.794 179.463L209.02 180.307L207.524 180.704L208.272 183.496C208.343 183.76 208.461 183.939 208.628 184.033C208.795 184.127 208.987 184.145 209.204 184.088Z" fill="white"/>
<path opacity="0.7" d="M195.497 114.965C201.148 115.838 205.378 112.906 206.726 112.037C205.51 114.142 203.537 120.217 205.862 122.032L201.921 119.318C198.92 122.294 192.817 127.531 193.905 132.005C193.373 130.339 191.767 126.492 185.908 125.145C192.069 125.18 196.272 120.72 199.458 117.444L195.497 114.965Z" fill="#32E3B5"/>
<path d="M182.802 125.769L182.026 122.96L182.815 122.745L183.105 123.796L184.118 123.52L183.828 122.469L184.617 122.254L185.393 125.063L184.604 125.278L184.309 124.21L183.296 124.487L183.591 125.554L182.802 125.769Z" fill="#4747D9"/>
<path d="M185.912 124.921L185.136 122.112L185.929 121.896L186.705 124.704L185.912 124.921Z" fill="#4747D9"/>
<path d="M188.694 124.223C188.246 124.345 187.839 124.309 187.47 124.116C187.101 123.92 186.858 123.61 186.741 123.184C186.627 122.773 186.676 122.387 186.889 122.026C187.104 121.666 187.431 121.425 187.87 121.306C188.32 121.183 188.743 121.214 189.138 121.4L188.827 122.076C188.564 121.958 188.31 121.932 188.066 121.999C187.86 122.055 187.707 122.177 187.608 122.365C187.511 122.553 187.493 122.756 187.553 122.976C187.616 123.203 187.74 123.371 187.924 123.479C188.11 123.583 188.316 123.605 188.541 123.543C188.725 123.493 188.867 123.413 188.964 123.303L188.87 122.962L188.309 123.115L188.151 122.545L189.461 122.188L189.81 123.452C189.535 123.838 189.163 124.095 188.694 124.223Z" fill="#4747D9"/>
<path d="M190.352 123.71L189.576 120.901L190.365 120.686L190.655 121.737L191.668 121.461L191.377 120.409L192.166 120.194L192.942 123.003L192.153 123.218L191.858 122.151L190.846 122.427L191.141 123.495L190.352 123.71Z" fill="#4747D9"/>
<path d="M194.573 122.558L193.797 119.749L196.075 119.128L196.263 119.81L194.775 120.216L194.907 120.694L196.253 120.327L196.431 120.973L195.085 121.34L195.362 122.343L194.573 122.558Z" fill="#4747D9"/>
<path d="M197.211 121.839L196.434 119.03L197.223 118.815L197.811 120.942L199.19 120.566L199.378 121.248L197.211 121.839Z" fill="#4747D9"/>
<path d="M200.933 120.88C200.515 120.994 200.161 120.975 199.872 120.824C199.582 120.673 199.378 120.383 199.26 119.955L198.824 118.378L199.626 118.16L200.057 119.721C200.112 119.919 200.199 120.056 200.319 120.132C200.442 120.205 200.584 120.22 200.747 120.175C200.909 120.131 201.023 120.048 201.089 119.927C201.157 119.804 201.165 119.647 201.112 119.454L200.675 117.873L201.476 117.655L201.906 119.212C202.027 119.651 202 120.01 201.824 120.291C201.65 120.569 201.353 120.765 200.933 120.88Z" fill="#4747D9"/>
<path d="M202.719 120.336L201.943 117.527L204.232 116.903L204.415 117.565L202.907 117.977L203.024 118.402L204.391 118.029L204.56 118.643L203.194 119.016L203.317 119.461L204.846 119.044L205.029 119.706L202.719 120.336Z" fill="#4747D9"/>
<path d="M205.431 119.597L204.655 116.788L205.391 116.587L206.973 117.752L206.563 116.267L207.343 116.054L208.12 118.863L207.428 119.052L205.787 117.843L206.212 119.384L205.431 119.597Z" fill="#4747D9"/>
<path d="M210.011 118.408C209.598 118.52 209.212 118.478 208.851 118.28C208.492 118.078 208.255 117.768 208.139 117.348C208.025 116.936 208.072 116.55 208.279 116.192C208.488 115.833 208.808 115.595 209.236 115.478C209.743 115.339 210.196 115.429 210.596 115.746L210.14 116.344C209.904 116.176 209.665 116.124 209.424 116.19C209.226 116.244 209.083 116.361 208.996 116.54C208.908 116.719 208.894 116.915 208.952 117.126C209.011 117.34 209.125 117.502 209.292 117.611C209.459 117.718 209.641 117.745 209.839 117.691C209.977 117.653 210.087 117.593 210.169 117.51C210.251 117.425 210.323 117.313 210.387 117.175L211.096 117.43C211.002 117.671 210.872 117.875 210.705 118.042C210.538 118.205 210.306 118.327 210.011 118.408Z" fill="#4747D9"/>
<path d="M212.337 117.713L212.047 116.662L210.479 115.199L211.378 114.954L212.246 115.817L212.553 114.633L213.436 114.393L212.836 116.433L213.13 117.497L212.337 117.713Z" fill="#4747D9"/>
<path d="M183.491 128.548L183.111 127.173L184.149 126.89L184.21 127.11L183.417 127.326L183.521 127.701L184.224 127.509L184.284 127.729L183.582 127.921L183.736 128.481L183.491 128.548Z" fill="#4747D9"/>
<path d="M184.812 128.188L184.432 126.812L184.677 126.746L185.057 128.121L184.812 128.188Z" fill="#4747D9"/>
<path d="M185.43 128.019L185.05 126.644L185.277 126.582L186.286 127.329L186.024 126.378L186.264 126.313L186.644 127.688L186.439 127.744L185.401 126.975L185.671 127.953L185.43 128.019Z" fill="#4747D9"/>
<path d="M187.003 127.59L186.623 126.215L187.143 126.073C187.36 126.014 187.556 126.031 187.73 126.124C187.904 126.216 188.019 126.361 188.073 126.559C188.128 126.755 188.103 126.938 188 127.107C187.898 127.275 187.739 127.389 187.523 127.448L187.003 127.59ZM187.187 127.303L187.462 127.228C187.606 127.189 187.711 127.114 187.776 127.003C187.841 126.891 187.854 126.766 187.816 126.629C187.779 126.492 187.703 126.393 187.59 126.329C187.477 126.266 187.348 126.254 187.203 126.293L186.929 126.368L187.187 127.303Z" fill="#4747D9"/>
<path d="M189.567 126.89L189.418 126.348L188.634 125.666L188.923 125.587L189.481 126.09L189.707 125.374L189.988 125.297L189.663 126.275L189.814 126.823L189.567 126.89Z" fill="#4747D9"/>
<path d="M191.602 126.137C191.502 126.314 191.346 126.431 191.135 126.488C190.924 126.546 190.731 126.524 190.557 126.424C190.382 126.324 190.267 126.174 190.212 125.975C190.158 125.779 190.181 125.592 190.28 125.416C190.38 125.239 190.535 125.122 190.746 125.065C190.957 125.007 191.15 125.028 191.325 125.129C191.5 125.229 191.615 125.379 191.67 125.578C191.724 125.774 191.701 125.961 191.602 126.137ZM190.699 126.216C190.815 126.286 190.941 126.302 191.078 126.265C191.215 126.228 191.314 126.15 191.375 126.032C191.438 125.913 191.451 125.785 191.413 125.648C191.375 125.511 191.298 125.409 191.182 125.339C191.066 125.268 190.94 125.25 190.804 125.288C190.667 125.325 190.567 125.403 190.504 125.522C190.443 125.64 190.431 125.768 190.469 125.905C190.507 126.041 190.583 126.145 190.699 126.216Z" fill="#4747D9"/>
<path d="M192.733 126.05C192.548 126.101 192.389 126.089 192.254 126.014C192.121 125.939 192.027 125.803 191.972 125.607L191.754 124.815L191.999 124.748L192.215 125.53C192.249 125.656 192.307 125.745 192.388 125.796C192.47 125.847 192.565 125.857 192.676 125.827C192.786 125.797 192.862 125.741 192.905 125.659C192.95 125.576 192.954 125.473 192.92 125.349L192.701 124.557L192.946 124.49L193.162 125.27C193.217 125.47 193.206 125.638 193.129 125.773C193.052 125.907 192.92 125.999 192.733 126.05Z" fill="#4747D9"/>
<path d="M193.662 125.774L193.282 124.398L193.904 124.229C194.066 124.185 194.203 124.19 194.317 124.245C194.43 124.299 194.505 124.392 194.542 124.526C194.572 124.634 194.567 124.732 194.527 124.819C194.487 124.905 194.419 124.976 194.325 125.033L194.845 125.451L194.556 125.53L194.077 125.145L193.775 125.227L193.907 125.707L193.662 125.774ZM193.716 125.013L194.074 124.915C194.162 124.892 194.226 124.852 194.266 124.796C194.306 124.74 194.316 124.675 194.296 124.603C194.276 124.53 194.235 124.481 194.174 124.455C194.112 124.43 194.036 124.429 193.944 124.454L193.588 124.552L193.716 125.013Z" fill="#4747D9"/>
<path d="M196.161 125.103L195.199 123.876L195.469 123.802L196.182 124.744L196.308 123.573L196.572 123.501L196.376 125.044L196.161 125.103Z" fill="#4747D9"/>
<path d="M198.243 124.325C198.144 124.502 197.988 124.619 197.777 124.676C197.566 124.734 197.373 124.713 197.199 124.612C197.024 124.512 196.909 124.363 196.854 124.163C196.8 123.967 196.823 123.781 196.922 123.604C197.022 123.428 197.177 123.311 197.388 123.253C197.599 123.195 197.792 123.217 197.967 123.317C198.142 123.417 198.257 123.567 198.312 123.766C198.366 123.962 198.343 124.149 198.243 124.325ZM197.34 124.405C197.457 124.474 197.583 124.491 197.72 124.453C197.857 124.416 197.956 124.338 198.017 124.22C198.08 124.102 198.093 123.974 198.055 123.836C198.017 123.7 197.94 123.597 197.824 123.527C197.708 123.456 197.582 123.439 197.446 123.476C197.309 123.513 197.209 123.591 197.146 123.71C197.085 123.828 197.073 123.956 197.111 124.093C197.149 124.23 197.225 124.333 197.34 124.405Z" fill="#4747D9"/>
<path d="M198.811 124.369L198.431 122.994L198.676 122.927L199.056 124.302L198.811 124.369Z" fill="#4747D9"/>
<path d="M200.083 124.048C199.881 124.103 199.694 124.08 199.521 123.981C199.347 123.881 199.233 123.73 199.178 123.53C199.123 123.331 199.144 123.144 199.241 122.969C199.339 122.795 199.491 122.679 199.7 122.622C199.821 122.59 199.928 122.58 200.022 122.594C200.117 122.607 200.211 122.639 200.305 122.688L200.197 122.909C200.04 122.83 199.895 122.808 199.759 122.845C199.626 122.881 199.529 122.958 199.468 123.077C199.408 123.194 199.396 123.322 199.434 123.46C199.472 123.596 199.548 123.7 199.662 123.772C199.776 123.842 199.898 123.859 200.03 123.823C200.109 123.802 200.176 123.768 200.229 123.723C200.281 123.676 200.332 123.613 200.38 123.535L200.581 123.65C200.525 123.752 200.459 123.836 200.383 123.9C200.306 123.965 200.206 124.014 200.083 124.048Z" fill="#4747D9"/>
<path d="M200.899 123.8L200.519 122.424L201.553 122.142L201.612 122.359L200.824 122.574L200.923 122.931L201.622 122.741L201.681 122.957L200.982 123.147L201.084 123.517L201.883 123.299L201.943 123.515L200.899 123.8Z" fill="#4747D9"/>
<path d="M202.844 123.269L202.464 121.894L202.709 121.827L203.089 123.202L202.844 123.269Z" fill="#4747D9"/>
<path d="M203.462 123.101L203.082 121.725L203.309 121.663L204.318 122.411L204.056 121.46L204.296 121.394L204.676 122.769L204.471 122.825L203.433 122.056L203.703 123.035L203.462 123.101Z" fill="#4747D9"/>
<path d="M205.632 122.509L205.252 121.133L206.285 120.852L206.345 121.068L205.556 121.283L205.655 121.64L206.354 121.45L206.414 121.666L205.715 121.856L205.817 122.226L206.615 122.008L206.675 122.224L205.632 122.509Z" fill="#4747D9"/>
<path d="M206.966 122.145L206.586 120.77L206.813 120.708L207.822 121.455L207.559 120.504L207.8 120.438L208.18 121.814L207.975 121.869L206.936 121.101L207.207 122.079L206.966 122.145Z" fill="#4747D9"/>
<path d="M209.206 121.559C208.991 121.618 208.798 121.598 208.627 121.501C208.457 121.403 208.344 121.251 208.287 121.045C208.233 120.849 208.254 120.662 208.351 120.487C208.449 120.311 208.602 120.194 208.809 120.138C208.926 120.106 209.03 120.094 209.121 120.103C209.212 120.111 209.303 120.136 209.396 120.178L209.292 120.403C209.219 120.369 209.15 120.349 209.084 120.342C209.019 120.333 208.944 120.34 208.861 120.362C208.733 120.397 208.639 120.474 208.578 120.594C208.518 120.713 208.507 120.84 208.544 120.975C208.583 121.118 208.66 121.224 208.773 121.293C208.886 121.36 209.013 121.375 209.153 121.337C209.283 121.301 209.386 121.236 209.461 121.141L209.39 120.884L209.034 120.981L208.975 120.771L209.569 120.609L209.728 121.186C209.599 121.375 209.425 121.499 209.206 121.559Z" fill="#4747D9"/>
<path d="M210.1 121.29L209.72 119.915L209.965 119.848L210.284 121.003L211.017 120.803L211.078 121.023L210.1 121.29Z" fill="#4747D9"/>
<path d="M211.347 120.95L210.967 119.575L211.212 119.508L211.592 120.883L211.347 120.95Z" fill="#4747D9"/>
<path d="M212.458 120.668C212.236 120.728 212.022 120.708 211.816 120.606L211.915 120.393C212.088 120.474 212.251 120.494 212.405 120.452C212.48 120.431 212.536 120.399 212.571 120.356C212.607 120.311 212.618 120.262 212.603 120.208C212.589 120.157 212.556 120.122 212.505 120.103C212.454 120.084 212.362 120.076 212.229 120.082C212.057 120.088 211.926 120.072 211.835 120.035C211.746 119.996 211.685 119.916 211.652 119.796C211.619 119.678 211.637 119.57 211.706 119.472C211.774 119.373 211.878 119.305 212.017 119.267C212.208 119.215 212.393 119.226 212.571 119.302L212.49 119.52C212.335 119.461 212.196 119.448 212.072 119.482C212.002 119.501 211.951 119.532 211.918 119.575C211.887 119.617 211.878 119.663 211.892 119.711C211.906 119.765 211.94 119.801 211.992 119.819C212.045 119.835 212.142 119.841 212.282 119.837C212.446 119.832 212.572 119.85 212.661 119.892C212.751 119.934 212.811 120.01 212.842 120.121C212.877 120.249 212.859 120.361 212.788 120.46C212.717 120.558 212.607 120.627 212.458 120.668Z" fill="#4747D9"/>
<path d="M213.238 120.434L212.858 119.059L213.103 118.992L213.261 119.564L213.926 119.382L213.768 118.81L214.013 118.744L214.393 120.119L214.148 120.186L213.988 119.606L213.323 119.788L213.483 120.367L213.238 120.434Z" fill="#4747D9"/>
<path d="M130.816 125.923C130.962 127.272 131.851 128.279 132.81 128.17C133.769 128.066 134.43 126.885 134.284 125.535C134.138 124.186 133.248 123.178 132.289 123.288C131.336 123.391 130.676 124.573 130.816 125.923Z" fill="#263238"/>
<path d="M116.816 126.536C116.962 127.886 117.851 128.893 118.81 128.783C119.769 128.68 120.43 127.498 120.284 126.149C120.138 124.799 119.248 123.792 118.289 123.901C117.336 124.011 116.676 125.186 116.816 126.536Z" fill="#263238"/>
</g>
<defs>
<clipPath id="clip0_45_473">
<rect width="258" height="286" fill="white"/>
</clipPath>
</defs>
</svg>
