<svg width="66" height="67" viewBox="0 0 66 67" fill="none" xmlns="http://www.w3.org/2000/svg">
<g clip-path="url(#clip0_45_607)">
<path d="M48.6257 28.0484H48.6479C50.5564 28.0484 52.1029 26.4772 52.1029 24.541C52.1029 22.6035 50.5564 21.0321 48.6479 21.0321C48.623 21.0321 48.5982 21.0321 48.5733 21.0334H16.9349C16.91 21.0321 16.8852 21.0321 16.8603 21.0321C14.9518 21.0321 13.4053 22.6033 13.4053 24.541C13.4053 26.4772 14.9518 28.0484 16.8603 28.0484H16.8825" fill="#FDC4A6"/>
<path d="M47.8305 11.8729C37.7793 10.8838 27.7281 10.8838 17.6769 11.8729C16.8969 18.2171 16.6672 24.5612 16.9876 30.9054C17.221 35.5235 20.8613 39.1995 25.4115 39.4176C30.3064 39.6523 35.2011 39.6523 40.0959 39.4176C44.646 39.1995 48.2865 35.5237 48.5198 30.9054C48.8403 24.5612 48.6105 18.217 47.8305 11.8729Z" fill="#FDC4A6"/>
<path d="M17.6777 11.8718C22.7025 11.3772 27.7287 11.1305 32.7548 11.1305C30.2102 11.1305 27.6656 11.3802 25.121 11.8794C24.7251 18.2847 24.6096 24.6901 24.7717 31.094C24.8782 35.309 26.3956 38.746 28.3869 39.53C27.3957 39.5026 26.403 39.4646 25.412 39.4173C20.8626 39.1997 17.2219 35.5236 16.9879 30.9052C16.6686 24.5609 16.8981 18.2163 17.6777 11.8718Z" fill="#FDC4A6"/>
<path d="M32.7544 34.3217C30.9974 34.3217 29.3752 33.2803 28.6218 31.6685C28.386 31.1641 28.5977 30.5609 29.0946 30.3216C29.5917 30.0823 30.1855 30.2971 30.4214 30.8016C30.8468 31.7116 31.7626 32.2995 32.7545 32.2995C33.7464 32.2995 34.6622 31.7116 35.0877 30.8016C35.3235 30.2973 35.9175 30.0823 36.4145 30.3217C36.9115 30.5612 37.1231 31.1642 36.8872 31.6687C36.1335 33.2803 34.5114 34.3217 32.7544 34.3217Z" fill="#C32430"/>
<path d="M25.3966 27.5048C26.1911 27.5048 26.8352 26.5315 26.8352 25.3309C26.8352 24.1304 26.1911 23.1571 25.3966 23.1571C24.6021 23.1571 23.958 24.1304 23.958 25.3309C23.958 26.5315 24.6021 27.5048 25.3966 27.5048Z" fill="#232323"/>
<path d="M40.1105 27.5048C40.905 27.5048 41.5491 26.5315 41.5491 25.3309C41.5491 24.1304 40.905 23.1571 40.1105 23.1571C39.316 23.1571 38.6719 24.1304 38.6719 25.3309C38.6719 26.5315 39.316 27.5048 40.1105 27.5048Z" fill="#232323"/>
<path d="M41.1267 17.1485C35.3495 19.414 27.1431 18.4151 23.0073 14.2166C23.0073 14.2166 22.0251 21.0333 16.9368 21.0333L14.718 21.7908C8.79176 -1.82366 21.4319 4.48599 21.4319 4.48599C22.6253 2.13824 24.3635 1.16635 26.1797 0.93185C26.3395 0.911828 26.4995 0.896779 26.6604 0.886703C26.6732 0.886703 26.686 0.885656 26.6989 0.88474C27.9782 0.815647 29.2732 1.07907 30.424 1.45489C30.8248 1.58615 31.2087 1.73048 31.5681 1.87979C33.0141 2.48005 34.0673 3.15437 34.2884 3.2987C34.317 3.31872 34.3318 3.3288 34.3318 3.3288C35.6327 1.58117 36.8735 0 38.2376 0C38.7973 0 39.1841 0.217488 39.4437 0.565182C40.4278 1.87482 39.6194 5.02408 39.5543 5.27167L39.5514 5.28266C39.5524 5.2807 39.5533 5.27664 39.5554 5.27167L39.5623 5.25361C39.7369 4.8066 41.6913 0 45.1963 0C45.4174 0 45.6158 0.0210684 45.7925 0.0611113C48.4052 0.647231 46.3601 5.28659 46.135 5.77757L46.1291 5.79157C46.1231 5.80361 46.1191 5.81264 46.1172 5.81657C46.2287 5.67223 50.6044 0.0329767 52.5489 2.6202C52.5499 2.62216 52.5499 2.62216 52.5508 2.62321C54.5122 5.24759 46.901 14.8839 41.1267 17.1485Z" fill="#232323"/>
<path d="M52.5479 2.6202H52.5469C51.5637 1.62319 48.1584 6.32967 46.1133 5.81958L46.1281 5.79158C46.1222 5.80362 46.1182 5.81265 46.1162 5.81658C46.2279 5.67237 50.6035 0.0331142 52.5479 2.6202Z" fill="#232323"/>
<path d="M45.792 0.0611113C44.3151 -0.279385 42.9462 2.5744 42.1726 4.60023C41.7985 5.57997 40.6399 5.97308 39.7601 5.41954L39.5488 5.28659L39.5508 5.28253L39.5537 5.27154H39.5548L39.5617 5.25348C39.7364 4.8066 41.6909 0 45.1958 0C45.4169 0 45.6154 0.0210684 45.792 0.0611113Z" fill="#232323"/>
<path d="M26.1787 0.931854C21.9522 1.68835 20.3551 11.5252 23.0064 14.2166C23.0064 14.2166 22.0242 21.0333 16.9359 21.0333L14.717 21.7908C8.7907 -1.82365 21.431 4.486 21.431 4.486C22.6243 2.13825 24.3626 1.16635 26.1787 0.931854Z" fill="#232323"/>
<path d="M39.4426 0.565182C37.9571 -0.942842 36.9671 6.79069 33.6229 8.02914C30.2788 9.26759 29.9658 7.68445 29.9658 7.68445V7.68341C31.6122 7.06523 33.0019 5.11124 34.3296 3.32762C34.3306 3.32867 34.3306 3.32867 34.3306 3.32867C34.3711 3.27358 34.4115 3.2194 34.452 3.16536C34.5023 3.09626 34.5546 3.02704 34.6059 2.95899C35.8084 1.36473 36.969 0 38.2364 0C38.7962 0 39.183 0.217488 39.4426 0.565182Z" fill="#232323"/>
<path d="M26.6994 0.885731C26.686 0.885731 26.6727 0.885731 26.6592 0.88673C26.6717 0.88673 26.684 0.885731 26.6965 0.884857L26.6994 0.885731Z" fill="#ECC32E"/>
<path d="M52.7318 31.8998L35.4711 35.6972L35.4708 35.6974V35.697H30.5295V35.6972L30.5292 35.6971L13.2685 31.8997C11.5082 31.5116 9.84375 32.8743 9.84375 34.7026V55.7975C9.84375 57.1477 10.7719 58.3158 12.0712 58.6016L30.5292 62.6623L30.5295 62.6621V62.6623H35.4708V62.6621L35.4711 62.6623L53.929 58.6016C55.2284 58.3158 56.1565 57.1477 56.1565 55.7975V34.7027C56.1565 32.8745 54.4921 31.5117 52.7318 31.8998Z" fill="#DFEAEF"/>
<path d="M58.015 36.7961V59.5842C58.015 61.0429 57.0123 62.3047 55.6087 62.6134L35.6693 67L33.0957 65.3475V39.5935L35.6693 37.8706L54.3153 33.7684C56.217 33.349 58.015 34.8212 58.015 36.7961Z" fill="#4747D9"/>
<path d="M33.0959 39.5935V65.3475L30.331 67L10.3916 62.6133C8.98798 62.3046 7.98535 61.0428 7.98535 59.5842V36.7961C7.98535 34.8211 9.78347 33.349 11.6851 33.7683L30.3311 37.8704L33.0959 39.5935Z" fill="#4747D9"/>
<path d="M30.3311 67V37.8703H35.6691V67" fill="#4747D9"/>
<path d="M42.4014 45.5763C41.9428 45.5763 41.5301 45.2529 41.4291 44.7793C41.3125 44.2336 41.6539 43.6952 42.1914 43.5769L53.2201 41.1504C53.7582 41.0321 54.288 41.3786 54.4045 41.9243C54.521 42.47 54.1797 43.0084 53.6422 43.1267L42.6135 45.5532C42.5422 45.5689 42.4713 45.5763 42.4014 45.5763Z" fill="#32E3B5"/>
<path d="M42.4014 49.3334C41.9428 49.3334 41.5301 49.01 41.4291 48.5364C41.3125 47.9907 41.6539 47.4523 42.1914 47.334L53.2201 44.9075C53.7582 44.7894 54.288 45.1357 54.4045 45.6814C54.521 46.2271 54.1797 46.7655 53.6422 46.8838L42.6135 49.3103C42.5422 49.326 42.4713 49.3334 42.4014 49.3334Z" fill="#32E3B5"/>
<path d="M7.43697 47.8071H6.3927C4.85059 47.8071 3.60059 46.538 3.60059 44.9726V42.4283C3.60059 40.8629 4.85072 39.5939 6.3927 39.5939H7.43697C8.97907 39.5939 10.2291 40.863 10.2291 42.4283V44.9726C10.2291 46.5381 8.97894 47.8071 7.43697 47.8071Z" fill="#FDC4A6"/>
<path d="M7.9736 47.7533C7.801 47.7897 7.6204 47.8072 7.43709 47.8072H6.39192C4.8502 47.8072 3.60059 46.5374 3.60059 44.9722V42.4283C3.60059 40.8618 4.8502 39.5932 6.39192 39.5932H7.43709C7.6204 39.5932 7.801 39.6107 7.9736 39.6471C6.68944 39.9006 5.72006 41.0491 5.72006 42.4283V44.9722C5.72006 46.3514 6.68944 47.5 7.9736 47.7533Z" fill="#FDC4A6"/>
<path d="M59.6069 47.8071H58.5626C57.0205 47.8071 55.7705 46.538 55.7705 44.9726V42.4283C55.7705 40.8629 57.0206 39.5939 58.5626 39.5939H59.6069C61.149 39.5939 62.399 40.863 62.399 42.4283V44.9726C62.399 46.5381 61.1489 47.8071 59.6069 47.8071Z" fill="#FDC4A6"/>
<path d="M60.1435 47.7533C59.9709 47.7897 59.7903 47.8072 59.607 47.8072H58.5618C57.0201 47.8072 55.7705 46.5374 55.7705 44.9722V42.4283C55.7705 40.8618 57.0201 39.5932 58.5618 39.5932H59.607C59.7903 39.5932 59.9709 39.6107 60.1435 39.6471C58.8594 39.9006 57.89 41.0491 57.89 42.4283V44.9722C57.89 46.3514 58.8594 47.5 60.1435 47.7533Z" fill="#FDC4A6"/>
</g>
<defs>
<clipPath id="clip0_45_607">
<rect width="66" height="67" fill="white"/>
</clipPath>
</defs>
</svg>
