<svg width="280" height="174" viewBox="0 0 280 174" fill="none" xmlns="http://www.w3.org/2000/svg">
<path opacity="0.55" d="M178.085 42.7617C212.904 57.1515 244.616 44.816 254.617 41.302C243.513 52.9848 221.309 89.08 233.34 104.379L212.374 80.7762C188.464 95.3025 141.124 119.59 141.048 150.113C140.263 138.553 136.037 111.264 100.634 93.5022C140.04 103.278 173.986 81.0516 199.552 64.8801L178.085 42.7617Z" fill="#32E3B5"/>
<path d="M57.3725 137.675V100.55H67.4027V129.575H81.699V137.675H57.3725ZM109.682 137.675H87.641V100.55H109.682V108.6H97.6713V114.44H108.793V122.49H97.6713V129.498H109.682V137.675ZM148.254 100.55L136.091 137.675H124.283L112.171 100.55H123.445L128.498 119.367C128.685 120.078 128.896 120.992 129.133 122.109C129.387 123.209 129.616 124.31 129.819 125.41C130.039 126.511 130.174 127.408 130.225 128.102C130.293 127.408 130.42 126.519 130.606 125.436C130.792 124.352 130.995 123.269 131.216 122.185C131.453 121.085 131.673 120.179 131.876 119.468L137.031 100.55H148.254ZM174.333 137.675H152.292V100.55H174.333V108.6H162.322V114.44H173.444V122.49H162.322V129.498H174.333V137.675ZM190.178 137.675H180.25V98.1634H190.178V137.675ZM242.717 100.55V122.896C242.717 126.011 242.124 128.72 240.939 131.022C239.754 133.307 237.976 135.076 235.606 136.329C233.236 137.565 230.265 138.183 226.693 138.183C221.581 138.183 217.679 136.871 214.987 134.247C212.296 131.623 210.95 127.916 210.95 123.125V100.55H221.031V122.338C221.031 124.962 221.522 126.866 222.504 128.051C223.485 129.236 224.933 129.829 226.846 129.829C228.217 129.829 229.334 129.575 230.198 129.067C231.061 128.542 231.687 127.721 232.077 126.604C232.483 125.486 232.686 124.047 232.686 122.287V100.55H242.717ZM263.361 100.55C268.067 100.55 271.588 101.575 273.925 103.623C276.278 105.671 277.454 108.583 277.454 112.358C277.454 114.051 277.209 115.676 276.718 117.234C276.244 118.791 275.457 120.179 274.356 121.398C273.273 122.617 271.825 123.582 270.014 124.293C268.22 125.004 266.002 125.359 263.361 125.359H260.542V137.675H250.512V100.55H263.361ZM263.133 108.651H260.542V117.183H262.523C263.386 117.183 264.191 117.039 264.935 116.751C265.68 116.446 266.273 115.964 266.713 115.304C267.17 114.627 267.399 113.729 267.399 112.612C267.399 111.444 267.052 110.496 266.357 109.768C265.663 109.023 264.588 108.651 263.133 108.651Z" fill="#232323"/>
<path d="M83.0394 17.0772C85.0323 13.0382 87.0567 8.99085 91.6691 7.17975C95.4021 5.71438 99.1448 6.597 102.206 9.22872C110.883 16.6779 102.445 23.7173 111.984 37.3937C114.948 41.6437 118.64 45.1595 120.267 50.0181C122.542 56.8221 119.114 59.7941 113.747 62.6336C88.054 76.2203 77.1214 44.1979 78.0496 37.0955C78.736 31.8119 81.7557 19.6787 83.0394 17.0772Z" fill="#232323"/>
<path d="M52.158 96.2433C53.2106 96.1463 55.8576 94.497 56.7628 94.3904C57.4634 94.3084 58.9758 94.1792 59.6196 94.1245C60.59 91.2584 65.5897 75.605 66.3374 70.969C67.1479 65.9482 72.1352 44.3224 72.1352 44.3224L81.277 46.6045C81.277 46.6045 76.3455 63.1709 74.7551 71.2527C73.3898 78.196 64.6853 93.4442 63.6008 95.0433C63.5982 95.0844 63.5957 95.1221 63.5896 95.163C63.2822 97.6247 62.1427 96.7248 62.1427 96.7248L60.1742 97.093C60.1742 97.093 53.2868 97.3077 52.8272 97.4431C52.371 97.5787 51.1054 96.3403 52.158 96.2433Z" fill="#F7A491"/>
<path d="M81.028 32.0705C74.3447 33.8645 69.4743 51.402 69.4743 51.402C69.4743 51.402 79.5506 54.9322 82.277 53.5978C82.277 53.5978 86.1191 40.5644 87.1585 41.0964L81.028 32.0705Z" fill="#29D1A6"/>
<path d="M24.1879 125.278C21.8444 130.426 20.4766 135.442 20.3443 136.05C20.2807 136.342 20.6058 137.805 20.5449 138.107C16.1728 143.328 10.3234 144.15 5.35149 144.179C8.03354 141.881 11.8864 139.787 12.1151 139.021C12.4799 137.798 14.3599 132.368 15.6065 124.76C18.5954 126.385 20.756 125.389 24.1879 125.278Z" fill="#F7A491"/>
<path d="M84.9292 69.9226L92.1564 95.3857C92.1564 95.3857 77.7797 97.1391 72.4075 97.7686C67.0352 98.3981 37.2828 97.7719 36.498 98.2511C35.914 98.6056 28.5017 118.03 25.0585 128.783C21.909 129.264 16.6461 128.1 13.8814 126.944C16.4229 111.407 23.5462 86.9867 25.4895 84.4038C28.6462 80.1992 84.9292 69.9226 84.9292 69.9226Z" fill="#3A3ACA"/>
<path d="M45.8739 137.641C44.5369 143.137 44.1323 148.322 44.1161 148.944C44.107 149.243 44.6995 150.617 44.6999 150.93C41.3823 156.876 35.7896 158.782 30.9122 159.743C33.1147 156.984 36.5096 154.203 36.5888 153.406C36.7157 152.137 37.5485 146.454 37.346 138.741C40.5833 139.773 42.5209 138.395 45.8739 137.641Z" fill="#F7A491"/>
<path d="M95.1629 71.8828L98.2112 77.959C102.854 87.212 98.1076 98.4211 88.2378 101.533C88.185 101.551 88.1323 101.568 88.0798 101.582C82.9219 103.206 53.5784 108.168 52.8983 108.785C52.3901 109.244 48.7514 129.712 47.3818 140.919C44.3769 141.984 38.9904 141.825 36.0568 141.204C35.641 125.465 38.0624 100.145 39.4861 97.2431C41.8053 92.5231 95.1629 71.8828 95.1629 71.8828Z" fill="#4747D9"/>
<path d="M43.6626 149.087C44.4854 148.286 47.01 153.148 47.6515 154.191C48.3741 155.364 48.093 156.196 47.9855 156.368C47.7053 156.814 32.2417 164.613 28.5681 165.002C28.2216 165.038 27.6392 164.783 27.5005 164.64C26.163 163.29 33.2968 154.435 36.3132 153.405C38.2563 152.739 39.9532 152.684 43.6626 149.087Z" fill="#232323"/>
<path d="M19.8606 136.187C20.8206 135.554 22.3875 140.801 22.8226 141.948C23.3106 143.236 22.879 143.999 22.7422 144.145C22.3833 144.532 5.73279 149.294 2.04924 148.986C1.70008 148.957 1.17964 148.596 1.06646 148.431C0.00520801 146.854 8.67375 139.493 11.8279 139.046C13.8633 138.762 15.5394 139.029 19.8606 136.187Z" fill="#232323"/>
<path d="M87.2327 32.4208C87.0648 32.4099 86.8252 32.3359 86.5835 32.2411C85.3842 31.9466 82.7485 31.4557 80.6253 32.1924C78.0444 33.0888 73.5089 42.7455 73.08 52.9263C73.0718 54.4884 73.0776 55.8862 73.0936 56.8613C73.2301 64.5834 74.5004 79.1388 74.6155 79.222C77.4896 81.3459 96.0612 75.0353 97.4083 73.4739C98.7588 71.9127 100.786 51.995 101.453 51.0367L103.767 33.75C101.71 32.9937 90.4493 32.6051 87.2327 32.4208Z" fill="#32E3B5"/>
<path d="M94.9786 26.5C94.9786 26.5 93.4231 32.4467 93.5021 34.8404C93.5813 37.2308 91.9645 44.8152 86.9346 44.5169C81.9049 44.2152 86.6089 34.7209 87.2363 32.4211C87.86 30.1244 88.44 22.9237 88.44 22.9237L94.9786 26.5Z" fill="#F7A491"/>
<path d="M88.0988 26.5328C88.3053 24.5671 88.4358 22.9234 88.4358 22.9234L94.9776 26.5034C94.9776 26.5034 94.6613 27.7185 94.3197 29.2728C91.327 29.6709 89.2589 28.4424 88.0988 26.5328Z" fill="#F47458"/>
<path d="M98.5194 10.0363C98.5194 10.0363 101.024 11.6476 101.771 14.8315C102.518 18.0189 100.916 26.0104 94.0757 27.5223C87.2351 29.0342 84.7422 22.4605 86.4469 17.5561C88.1549 12.6554 91.5737 6.52998 98.5194 10.0363Z" fill="#F7A491"/>
<path d="M85.736 15.5688C85.7794 16.9174 86.4534 17.9902 87.2397 17.9654C88.0261 17.9406 88.6251 16.8229 88.5817 15.4743C88.5382 14.1257 87.8643 13.053 87.0779 13.0777C86.2913 13.106 85.6891 14.22 85.736 15.5688Z" fill="#F7A491"/>
<path d="M97.7568 9.57727C97.7568 9.57727 98.391 18.6499 101.196 20.463C103.997 22.2759 102.522 26.1867 102.522 26.1867C102.522 26.1867 105.761 17.0931 103.654 13.9691C101.547 10.8416 97.7568 9.57727 97.7568 9.57727Z" fill="#232323"/>
<path d="M99.3873 21.6436C98.523 22.7647 98.437 24.1462 99.1941 24.7322C99.9512 25.3182 101.267 24.8802 102.131 23.7591C102.995 22.6379 103.081 21.2564 102.324 20.6704C101.567 20.0879 100.252 20.5224 99.3873 21.6436Z" fill="#F7A491"/>
<path d="M89.5767 21.5104L94.2296 23.0061C94.2296 23.0061 93.5443 24.7653 91.4801 24.1669C88.9596 23.4392 89.5767 21.5104 89.5767 21.5104Z" fill="white"/>
<path d="M129.065 99.4214C128.994 99.1999 128.805 99.1842 128.614 99.165C126.746 98.9855 124.88 98.782 123.044 98.3842C122.738 98.3197 122.438 98.228 122.161 98.0964C121.657 97.8572 121.149 97.8278 120.615 97.9378C120.329 97.9984 120.04 97.9935 119.749 97.9746C118.807 97.9101 116.182 96.8211 114.817 96.4917C114.505 96.4165 114.27 96.1603 114.211 95.8468C113.202 90.3914 111.072 78.1587 110.951 74.1755C110.796 69.0817 108.779 46.0213 108.779 46.0213L99.2529 48.0235C99.2529 48.0235 102.014 65.1261 102.547 73.366C102.961 79.7294 108.4 93.5291 110.128 97.5063C110.909 100.434 113.07 100.653 113.57 100.748C113.856 100.801 114.11 100.962 114.285 101.193C114.602 101.613 114.97 101.985 115.397 102.298C115.716 102.529 115.952 102.819 116.151 103.152C116.511 103.757 116.828 104.387 117.138 105.02C117.345 105.439 117.58 105.582 117.933 105.508C118.309 105.429 118.505 105.167 118.528 104.714C118.561 104.045 118.387 103.428 118.089 102.834C117.808 102.279 117.852 101.972 118.251 101.502C118.478 101.234 118.715 100.974 119.004 100.766C119.3 100.554 119.606 100.402 119.983 100.478C120.644 100.69 121.313 100.871 121.997 100.991L122.555 101.144C122.576 101.149 122.86 101.229 122.86 101.229C122.907 101.246 123.902 101.293 124.245 101.319C124.519 101.337 124.943 101.343 125.319 101.388C125.66 101.428 126.4 101.458 126.424 101.46C126.757 101.475 127.06 101.374 127.321 101.167C127.43 101.081 127.532 100.988 127.491 100.827C127.452 100.68 127.346 100.614 127.201 100.578C126.977 100.522 125.824 100.306 125.841 100.259C126.187 100.281 127.269 100.327 127.615 100.339C128.083 100.356 128.494 100.217 128.839 99.892C128.981 99.7704 129.137 99.6428 129.065 99.4214Z" fill="#F7A491"/>
<path d="M103.882 33.723C108.553 33.1823 111.026 54.0902 111.026 54.0902C111.026 54.0902 100.579 56.2908 98.0473 54.6159C98.0473 54.6159 95.9187 41.1958 94.8193 41.5892L103.882 33.723Z" fill="#32E3B5"/>
</svg>
