<svg width="80" height="50" viewBox="0 0 80 50" fill="none" xmlns="http://www.w3.org/2000/svg">
<path opacity="0.7" d="M37.254 7.38574C50.0237 13.1067 61.9306 8.87219 65.6819 7.67645C61.4325 11.8928 52.7968 25.0514 57.0968 30.8619L49.5698 21.8715C40.5354 27.0042 22.6964 35.5056 22.336 46.8364C22.1707 42.5362 20.8986 32.3595 7.94864 25.3803C22.4717 29.4382 35.3155 21.5561 44.9829 15.8307L37.254 7.38574Z" fill="#32E3B5"/>
<path d="M0.185365 24.8245V17.6711H2.19015V20.3485H4.7633V17.6711H6.76808V24.8245H4.7633V22.1062H2.19015V24.8245H0.185365Z" fill="#4747D9"/>
<path d="M8.08816 24.8245V17.6711H10.1033V24.8245H8.08816Z" fill="#4747D9"/>
<path d="M15.1168 24.9675C13.98 24.9675 13.0397 24.6201 12.2956 23.9252C11.5516 23.2235 11.1795 22.331 11.1795 21.2478C11.1795 20.1987 11.5481 19.3164 12.2853 18.6011C13.0293 17.8857 13.9594 17.5281 15.0754 17.5281C16.2191 17.5281 17.1973 17.8755 18.0103 18.5704L16.8322 19.9704C16.288 19.5208 15.7058 19.296 15.0858 19.296C14.5622 19.296 14.1213 19.4867 13.763 19.8682C13.4117 20.2497 13.236 20.7198 13.236 21.2785C13.236 21.8575 13.4186 22.3344 13.7837 22.7091C14.1557 23.077 14.6276 23.261 15.1994 23.261C15.6679 23.261 16.0537 23.1622 16.3568 22.9646V22.096H14.9308V20.6449H18.2583V23.8639C17.3558 24.5997 16.3086 24.9675 15.1168 24.9675Z" fill="#4747D9"/>
<path d="M19.3698 24.8245V17.6711H21.3745V20.3485H23.9477V17.6711H25.9525V24.8245H23.9477V22.1062H21.3745V24.8245H19.3698Z" fill="#4747D9"/>
<path d="M30.0973 24.8245V17.6711H35.8843V19.4084H32.102V20.6244H35.5226V22.2697H32.102V24.8245H30.0973Z" fill="#4747D9"/>
<path d="M36.7982 24.8245V17.6711H38.803V23.0872H42.3062V24.8245H36.7982Z" fill="#4747D9"/>
<path d="M46.2194 24.9573C45.1585 24.9573 44.3352 24.6848 43.7496 24.1398C43.164 23.5948 42.8712 22.7773 42.8712 21.6872V17.6711H44.907V21.6463C44.907 22.1505 45.0241 22.532 45.2584 22.7909C45.4995 23.043 45.8267 23.169 46.2401 23.169C46.6534 23.169 46.9772 23.0464 47.2115 22.8011C47.4526 22.5558 47.5732 22.188 47.5732 21.6974V17.6711H49.6089V21.6361C49.6089 22.7534 49.3093 23.588 48.7099 24.1398C48.1174 24.6848 47.2873 24.9573 46.2194 24.9573Z" fill="#4747D9"/>
<path d="M50.7954 24.8245V17.6711H56.6134V19.3573H52.7795V20.4405H56.2517V22.004H52.7795V23.1383H56.6651V24.8245H50.7954Z" fill="#4747D9"/>
<path d="M57.6881 24.8245V17.6711H59.5585L62.5347 21.4522V17.6711H64.5188V24.8245H62.762L59.6722 20.9004V24.8245H57.6881Z" fill="#4747D9"/>
<path d="M69.2844 24.9675C68.2372 24.9675 67.3519 24.6167 66.6285 23.915C65.912 23.2065 65.5538 22.3174 65.5538 21.2478C65.5538 20.1987 65.9155 19.3164 66.6389 18.6011C67.3691 17.8857 68.2785 17.5281 69.367 17.5281C70.6553 17.5281 71.6681 18.0322 72.4052 19.0405L70.9378 20.1646C70.49 19.6128 69.9595 19.3368 69.3464 19.3368C68.8434 19.3368 68.4301 19.5208 68.1063 19.8887C67.7825 20.2566 67.6206 20.7096 67.6206 21.2478C67.6206 21.7928 67.7825 22.2493 68.1063 22.6172C68.4301 22.9782 68.8434 23.1588 69.3464 23.1588C69.6977 23.1588 69.9974 23.0872 70.2454 22.9442C70.4934 22.7943 70.738 22.5763 70.9791 22.2901L72.4879 23.3529C72.109 23.8639 71.6681 24.2624 71.1651 24.5486C70.6622 24.8279 70.0353 24.9675 69.2844 24.9675Z" fill="#4747D9"/>
<path d="M75.2361 24.8245V22.1471L72.4872 17.6711H74.771L76.2591 20.277L77.7575 17.6711H80L77.2512 22.1164V24.8245H75.2361Z" fill="#4747D9"/>
<path d="M0 31.8501V28.3479H2.63591V28.9083H0.622297V29.8638H2.40824V30.4242H0.622297V31.8501H0Z" fill="#4747D9"/>
<path d="M3.3556 31.8501V28.3479H3.97789V31.8501H3.3556Z" fill="#4747D9"/>
<path d="M4.92592 31.8501V28.3479H5.50269L7.39993 30.7694V28.3479H8.01211V31.8501H7.491L5.5381 29.3585V31.8501H4.92592Z" fill="#4747D9"/>
<path d="M8.92299 31.8501V28.3479H10.2435C10.7966 28.3479 11.2486 28.5147 11.5994 28.8482C11.9501 29.1784 12.1255 29.5953 12.1255 30.099C12.1255 30.5993 11.9485 31.0162 11.5943 31.3498C11.2435 31.6833 10.7932 31.8501 10.2435 31.8501H8.92299ZM9.54528 31.2897H10.2435C10.6111 31.2897 10.9079 31.1796 11.1339 30.9595C11.3599 30.736 11.4729 30.4492 11.4729 30.099C11.4729 29.7521 11.3599 29.4669 11.1339 29.2435C10.9079 29.02 10.6111 28.9083 10.2435 28.9083H9.54528V31.2897Z" fill="#4747D9"/>
<path d="M15.4396 31.8501V30.4692L14.0331 28.3479H14.7667L15.7583 29.8989L16.76 28.3479H17.4734L16.0669 30.4542V31.8501H15.4396Z" fill="#4747D9"/>
<path d="M20.7379 31.3798C20.3871 31.7333 19.9436 31.9101 19.4073 31.9101C18.871 31.9101 18.4292 31.735 18.0818 31.3848C17.7344 31.0346 17.5607 30.606 17.5607 30.099C17.5607 29.5987 17.7361 29.1717 18.0868 28.8182C18.4376 28.4646 18.8812 28.2879 19.4174 28.2879C19.9537 28.2879 20.3956 28.463 20.743 28.8132C21.0904 29.1634 21.2641 29.592 21.2641 30.099C21.2641 30.5993 21.0887 31.0262 20.7379 31.3798ZM18.5523 30.9845C18.7817 31.2247 19.07 31.3447 19.4174 31.3447C19.7649 31.3447 20.0499 31.2247 20.2725 30.9845C20.4985 30.7444 20.6114 30.4492 20.6114 30.099C20.6114 29.7521 20.4968 29.4586 20.2674 29.2184C20.0414 28.975 19.7547 28.8532 19.4073 28.8532C19.0599 28.8532 18.7732 28.9733 18.5472 29.2134C18.3246 29.4536 18.2133 29.7488 18.2133 30.099C18.2133 30.4459 18.3263 30.741 18.5523 30.9845Z" fill="#4747D9"/>
<path d="M23.468 31.9051C22.9992 31.9051 22.6298 31.7733 22.36 31.5099C22.0935 31.2464 21.9603 30.8645 21.9603 30.3641V28.3479H22.5826V30.3391C22.5826 30.6593 22.6619 30.9061 22.8204 31.0796C22.9789 31.253 23.1982 31.3397 23.4781 31.3397C23.7581 31.3397 23.9756 31.2564 24.1308 31.0896C24.2893 30.9228 24.3685 30.681 24.3685 30.3641V28.3479H24.9908V30.3341C24.9908 30.8444 24.8559 31.2347 24.5861 31.5048C24.3163 31.7717 23.9436 31.9051 23.468 31.9051Z" fill="#4747D9"/>
<path d="M25.845 31.8501V28.3479H27.4235C27.835 28.3479 28.1571 28.4496 28.3899 28.6531C28.6226 28.8532 28.739 29.1234 28.739 29.4636C28.739 29.7404 28.6631 29.9689 28.5113 30.149C28.3595 30.3258 28.1538 30.4509 27.8941 30.5242L28.8503 31.8501H28.1167L27.2364 30.6293H26.4673V31.8501H25.845ZM26.4673 30.084H27.378C27.6006 30.084 27.7777 30.0306 27.9092 29.9239C28.0408 29.8171 28.1066 29.6721 28.1066 29.4886C28.1066 29.3018 28.0425 29.1584 27.9143 29.0583C27.7861 28.9583 27.6057 28.9083 27.373 28.9083H26.4673V30.084Z" fill="#4747D9"/>
<path d="M32.1867 31.8751L30.7144 28.3479H31.4025L32.47 31.0396L33.5325 28.3479H34.2054L32.7331 31.8751H32.1867Z" fill="#4747D9"/>
<path d="M37.6155 31.3798C37.2647 31.7333 36.8212 31.9101 36.2849 31.9101C35.7486 31.9101 35.3068 31.735 34.9594 31.3848C34.612 31.0346 34.4383 30.606 34.4383 30.099C34.4383 29.5987 34.6136 29.1717 34.9644 28.8182C35.3152 28.4646 35.7587 28.2879 36.295 28.2879C36.8313 28.2879 37.2732 28.463 37.6206 28.8132C37.968 29.1634 38.1417 29.592 38.1417 30.099C38.1417 30.5993 37.9663 31.0262 37.6155 31.3798ZM35.4299 30.9845C35.6592 31.2247 35.9476 31.3447 36.295 31.3447C36.6424 31.3447 36.9274 31.2247 37.1501 30.9845C37.376 30.7444 37.489 30.4492 37.489 30.099C37.489 29.7521 37.3743 29.4586 37.145 29.2184C36.919 28.975 36.6323 28.8532 36.2849 28.8532C35.9375 28.8532 35.6508 28.9733 35.4248 29.2134C35.2022 29.4536 35.0909 29.7488 35.0909 30.099C35.0909 30.4459 35.2039 30.741 35.4299 30.9845Z" fill="#4747D9"/>
<path d="M38.929 31.8501V28.3479H39.5513V31.8501H38.929Z" fill="#4747D9"/>
<path d="M42.1436 31.9101C41.6309 31.9101 41.2025 31.7367 40.8585 31.3898C40.5145 31.0396 40.3424 30.6093 40.3424 30.099C40.3424 29.592 40.5145 29.1634 40.8585 28.8132C41.2025 28.463 41.6393 28.2879 42.1689 28.2879C42.4758 28.2879 42.7355 28.3346 42.948 28.428C43.1639 28.5213 43.3662 28.6564 43.5551 28.8332L43.1554 29.2885C42.8384 28.9983 42.5078 28.8532 42.1638 28.8532C41.8265 28.8532 41.5466 28.9733 41.324 29.2134C41.1047 29.4536 40.9951 29.7488 40.9951 30.099C40.9951 30.4459 41.1064 30.741 41.329 30.9845C41.5516 31.2247 41.8299 31.3447 42.1638 31.3447C42.3662 31.3447 42.5449 31.3081 42.7001 31.2347C42.8552 31.158 43.0155 31.0429 43.1807 30.8895L43.5804 31.2897C43.3814 31.4965 43.1706 31.6516 42.948 31.755C42.7254 31.8584 42.4572 31.9101 42.1436 31.9101Z" fill="#4747D9"/>
<path d="M44.2345 31.8501V28.3479H46.8603V28.8982H44.8568V29.8088H46.6326V30.3591H44.8568V31.2997H46.8856V31.8501H44.2345Z" fill="#4747D9"/>
<path d="M49.1761 31.8501V28.3479H49.7984V31.8501H49.1761Z" fill="#4747D9"/>
<path d="M50.7464 31.8501V28.3479H51.3232L53.2204 30.7694V28.3479H53.8326V31.8501H53.3115L51.3586 29.3585V31.8501H50.7464Z" fill="#4747D9"/>
<path d="M56.2603 31.8501V28.3479H58.8861V28.8982H56.8826V29.8088H58.6584V30.3591H56.8826V31.2997H58.9113V31.8501H56.2603Z" fill="#4747D9"/>
<path d="M59.6496 31.8501V28.3479H60.2264L62.1236 30.7694V28.3479H62.7358V31.8501H62.2147L60.2618 29.3585V31.8501H59.6496Z" fill="#4747D9"/>
<path d="M65.3264 31.9101C64.78 31.9101 64.3364 31.74 63.9958 31.3998C63.6585 31.0562 63.4898 30.6226 63.4898 30.099C63.4898 29.5987 63.6618 29.1717 64.0059 28.8182C64.3533 28.4646 64.7901 28.2879 65.3163 28.2879C65.6131 28.2879 65.866 28.3279 66.0751 28.4079C66.2843 28.4847 66.485 28.6031 66.6772 28.7632L66.2826 29.2285C66.1342 29.1017 65.9841 29.0083 65.8323 28.9483C65.6839 28.8849 65.5035 28.8532 65.291 28.8532C64.9672 28.8532 64.694 28.975 64.4714 29.2184C64.2521 29.4619 64.1425 29.7554 64.1425 30.099C64.1425 30.4625 64.2538 30.7627 64.4764 30.9995C64.699 31.233 64.9891 31.3498 65.3466 31.3498C65.6771 31.3498 65.9622 31.2614 66.2016 31.0846V30.4292H65.296V29.8939H66.8037V31.3648C66.3753 31.7283 65.8829 31.9101 65.3264 31.9101Z" fill="#4747D9"/>
<path d="M67.6141 31.8501V28.3479H68.2364V31.2897H70.0982V31.8501H67.6141Z" fill="#4747D9"/>
<path d="M70.7819 31.8501V28.3479H71.4042V31.8501H70.7819Z" fill="#4747D9"/>
<path d="M73.5918 31.9001C73.0285 31.9001 72.5361 31.7133 72.1145 31.3397L72.4889 30.8995C72.843 31.203 73.2157 31.3548 73.607 31.3548C73.7992 31.3548 73.951 31.3147 74.0623 31.2347C74.177 31.1513 74.2343 31.0412 74.2343 30.9045C74.2343 30.7744 74.1804 30.671 74.0724 30.5943C73.9645 30.5142 73.752 30.4375 73.435 30.3641C73.0235 30.2674 72.7233 30.1457 72.5344 29.9989C72.3489 29.8488 72.2561 29.6204 72.2561 29.3135C72.2561 29.0133 72.3691 28.7698 72.5951 28.5831C72.8211 28.3929 73.1112 28.2979 73.4653 28.2979C73.951 28.2979 74.3794 28.4446 74.7504 28.7381L74.4165 29.2034C74.0893 28.9633 73.7689 28.8432 73.4552 28.8432C73.2764 28.8432 73.1348 28.8832 73.0302 28.9633C72.929 29.0433 72.8784 29.1451 72.8784 29.2685C72.8784 29.4052 72.9341 29.512 73.0454 29.5887C73.1601 29.6621 73.3844 29.7388 73.7183 29.8188C74.1095 29.9122 74.3962 30.0373 74.5784 30.194C74.7639 30.3508 74.8566 30.5709 74.8566 30.8544C74.8566 31.178 74.7403 31.4331 74.5075 31.6199C74.2748 31.8067 73.9696 31.9001 73.5918 31.9001Z" fill="#4747D9"/>
<path d="M75.5885 31.8501V28.3479H76.2108V29.8038H77.9006V28.3479H78.5229V31.8501H77.9006V30.3742H76.2108V31.8501H75.5885Z" fill="#4747D9"/>
</svg>
