<svg width="112" height="92" viewBox="0 0 112 92" fill="none" xmlns="http://www.w3.org/2000/svg">
<path opacity="0.7" d="M52.1562 22.9243C70.0338 30.9336 86.7035 25.0053 91.9552 23.3313C86.0061 29.2342 73.916 47.6563 79.936 55.791L69.3983 43.2043C56.7502 50.3901 31.7755 62.2921 31.271 78.1553C31.0395 72.135 29.2587 57.8876 11.1287 48.1167C31.4609 53.7978 49.4422 42.7628 62.9767 34.7472L52.1562 22.9243Z" fill="#32E3B5"/>
<path d="M0.259511 47.3385V37.3238H3.06621V41.0722H6.66862V37.3238H9.47532V47.3385H6.66862V43.5329H3.06621V47.3385H0.259511Z" fill="#4747D9"/>
<path d="M11.3234 47.3385V37.3238H14.1446V47.3385H11.3234Z" fill="#4747D9"/>
<path d="M21.1635 47.5388C19.5721 47.5388 18.2555 47.0524 17.2139 46.0795C16.1722 45.0971 15.6514 43.8477 15.6514 42.3312C15.6514 40.8623 16.1674 39.6272 17.1994 38.6257C18.241 37.6243 19.5431 37.1235 21.1056 37.1235C22.7067 37.1235 24.0763 37.61 25.2144 38.5828L23.5651 40.5428C22.8031 39.9133 21.9881 39.5986 21.1201 39.5986C20.3871 39.5986 19.7698 39.8656 19.2682 40.3998C18.7763 40.9339 18.5304 41.592 18.5304 42.3741C18.5304 43.1848 18.786 43.8524 19.2972 44.377C19.818 44.8921 20.4787 45.1496 21.2792 45.1496C21.9351 45.1496 22.4752 45.0113 22.8996 44.7347V43.5186H20.9031V41.4871H25.5616V45.9937C24.2981 47.0237 22.8321 47.5388 21.1635 47.5388Z" fill="#4747D9"/>
<path d="M27.1177 47.3385V37.3238H29.9244V41.0722H33.5268V37.3238H36.3335V47.3385H33.5268V43.5329H29.9244V47.3385H27.1177Z" fill="#4747D9"/>
<path d="M42.1362 47.3385V37.3238H50.238V39.756H44.9429V41.4585H49.7316V43.7618H44.9429V47.3385H42.1362Z" fill="#4747D9"/>
<path d="M51.5174 47.3385V37.3238H54.3241V44.9064H59.2286V47.3385H51.5174Z" fill="#4747D9"/>
<path d="M64.7072 47.5245C63.2219 47.5245 62.0693 47.143 61.2495 46.3799C60.4296 45.6169 60.0197 44.4724 60.0197 42.9463V37.3238H62.8698V42.8891C62.8698 43.5949 63.0338 44.129 63.3617 44.4915C63.6993 44.8444 64.1574 45.0208 64.7361 45.0208C65.3148 45.0208 65.7681 44.8491 66.0961 44.5058C66.4336 44.1624 66.6024 43.6474 66.6024 42.9607V37.3238H69.4525V42.8748C69.4525 44.439 69.033 45.6074 68.1938 46.3799C67.3644 47.143 66.2022 47.5245 64.7072 47.5245Z" fill="#4747D9"/>
<path d="M71.1136 47.3385V37.3238H79.2588V39.6844H73.8913V41.2009H78.7524V43.3899H73.8913V44.9779H79.3311V47.3385H71.1136Z" fill="#4747D9"/>
<path d="M80.7633 47.3385V37.3238H83.3819L87.5486 42.6173V37.3238H90.3263V47.3385H87.8669L83.5411 41.8447V47.3385H80.7633Z" fill="#4747D9"/>
<path d="M96.9981 47.5388C95.5321 47.5388 94.2927 47.0476 93.28 46.0652C92.2769 45.0733 91.7753 43.8286 91.7753 42.3312C91.7753 40.8623 92.2817 39.6272 93.2944 38.6257C94.3168 37.6243 95.5899 37.1235 97.1138 37.1235C98.9175 37.1235 100.335 37.8293 101.367 39.2409L99.3129 40.8147C98.686 40.0421 97.9433 39.6558 97.0849 39.6558C96.3808 39.6558 95.8021 39.9133 95.3488 40.4284C94.8955 40.9434 94.6688 41.5777 94.6688 42.3312C94.6688 43.0942 94.8955 43.7332 95.3488 44.2483C95.8021 44.7538 96.3808 45.0065 97.0849 45.0065C97.5768 45.0065 97.9964 44.9064 98.3436 44.7061C98.6908 44.4962 99.0332 44.191 99.3708 43.7904L101.483 45.2783C100.953 45.9937 100.335 46.5516 99.6312 46.9522C98.9271 47.3433 98.0494 47.5388 96.9981 47.5388Z" fill="#4747D9"/>
<path d="M105.33 47.3385V43.5901L101.482 37.3238H104.679L106.763 40.972L108.861 37.3238H112L108.152 43.5472V47.3385H105.33Z" fill="#4747D9"/>
<path d="M0 57.1743V52.2713H3.69027V53.0558H0.871216V54.3936H3.37153V55.1781H0.871216V57.1743H0Z" fill="#4747D9"/>
<path d="M4.69783 57.1743V52.2713H5.56905V57.1743H4.69783Z" fill="#4747D9"/>
<path d="M6.89629 57.1743V52.2713H7.70376L10.3599 55.6614V52.2713H11.217V57.1743H10.4874L7.75334 53.6862V57.1743H6.89629Z" fill="#4747D9"/>
<path d="M12.4922 57.1743V52.2713H14.3409C15.1153 52.2713 15.748 52.5048 16.2391 52.9717C16.7302 53.434 16.9757 54.0177 16.9757 54.7228C16.9757 55.4232 16.7278 56.0069 16.232 56.4739C15.7409 56.9408 15.1105 57.1743 14.3409 57.1743H12.4922ZM13.3634 56.3898H14.3409C14.8556 56.3898 15.2711 56.2357 15.5875 55.9276C15.9038 55.6147 16.062 55.2131 16.062 54.7228C16.062 54.2372 15.9038 53.8379 15.5875 53.5251C15.2711 53.2122 14.8556 53.0558 14.3409 53.0558H13.3634V56.3898Z" fill="#4747D9"/>
<path d="M21.6154 57.1743V55.2411L19.6463 52.2713H20.6733L22.0616 54.4426L23.464 52.2713H24.4628L22.4937 55.2201V57.1743H21.6154Z" fill="#4747D9"/>
<path d="M29.0331 56.5159C28.542 57.0109 27.9211 57.2584 27.1703 57.2584C26.4195 57.2584 25.8009 57.0132 25.3145 56.5229C24.8281 56.0326 24.5849 55.4326 24.5849 54.7228C24.5849 54.0224 24.8305 53.4247 25.3216 52.9297C25.8127 52.4347 26.4336 52.1873 27.1844 52.1873C27.9352 52.1873 28.5538 52.4324 29.0402 52.9227C29.5266 53.413 29.7697 54.013 29.7697 54.7228C29.7697 55.4232 29.5242 56.0209 29.0331 56.5159ZM25.9732 55.9626C26.2943 56.2988 26.6981 56.4669 27.1844 56.4669C27.6708 56.4669 28.0698 56.2988 28.3815 55.9626C28.6978 55.6264 28.856 55.2131 28.856 54.7228C28.856 54.2372 28.6955 53.8263 28.3744 53.4901C28.058 53.1492 27.6566 52.9787 27.1703 52.9787C26.6839 52.9787 26.2825 53.1468 25.9661 53.483C25.6545 53.8193 25.4987 54.2325 25.4987 54.7228C25.4987 55.2084 25.6568 55.6217 25.9732 55.9626Z" fill="#4747D9"/>
<path d="M32.8552 57.2514C32.1988 57.2514 31.6818 57.0669 31.304 56.698C30.931 56.3291 30.7444 55.7945 30.7444 55.094V52.2713H31.6156V55.059C31.6156 55.5073 31.7266 55.8528 31.9485 56.0957C32.1705 56.3385 32.4774 56.4599 32.8693 56.4599C33.2613 56.4599 33.5658 56.3431 33.7831 56.1097C34.005 55.8762 34.116 55.5376 34.116 55.094V52.2713H34.9872V55.052C34.9872 55.7665 34.7983 56.3128 34.4205 56.691C34.0428 57.0646 33.521 57.2514 32.8552 57.2514Z" fill="#4747D9"/>
<path d="M36.1831 57.1743V52.2713H38.393C38.9691 52.2713 39.42 52.4137 39.7458 52.6986C40.0716 52.9787 40.2346 53.357 40.2346 53.8333C40.2346 54.2208 40.1283 54.5407 39.9158 54.7929C39.7033 55.0403 39.4153 55.2154 39.0517 55.3182L40.3904 57.1743H39.3633L38.1309 55.4653H37.0543V57.1743H36.1831ZM37.0543 54.7018H38.3292C38.6409 54.7018 38.8888 54.6271 39.0729 54.4777C39.2571 54.3282 39.3492 54.1251 39.3492 53.8683C39.3492 53.6068 39.2595 53.406 39.08 53.2659C38.9006 53.1258 38.648 53.0558 38.3221 53.0558H37.0543V54.7018Z" fill="#4747D9"/>
<path d="M45.0614 57.2093L43.0002 52.2713H43.9635L45.458 56.0396L46.9455 52.2713H47.8875L45.8264 57.2093H45.0614Z" fill="#4747D9"/>
<path d="M52.6617 56.5159C52.1706 57.0109 51.5497 57.2584 50.7989 57.2584C50.0481 57.2584 49.4295 57.0132 48.9431 56.5229C48.4567 56.0326 48.2136 55.4326 48.2136 54.7228C48.2136 54.0224 48.4591 53.4247 48.9502 52.9297C49.4413 52.4347 50.0622 52.1873 50.813 52.1873C51.5638 52.1873 52.1824 52.4324 52.6688 52.9227C53.1552 53.413 53.3984 54.013 53.3984 54.7228C53.3984 55.4232 53.1528 56.0209 52.6617 56.5159ZM49.6018 55.9626C49.9229 56.2988 50.3267 56.4669 50.813 56.4669C51.2994 56.4669 51.6984 56.2988 52.0101 55.9626C52.3265 55.6264 52.4846 55.2131 52.4846 54.7228C52.4846 54.2372 52.3241 53.8263 52.003 53.4901C51.6866 53.1492 51.2852 52.9787 50.7989 52.9787C50.3125 52.9787 49.9111 53.1468 49.5948 53.483C49.2831 53.8193 49.1273 54.2325 49.1273 54.7228C49.1273 55.2084 49.2855 55.6217 49.6018 55.9626Z" fill="#4747D9"/>
<path d="M54.5005 57.1743V52.2713H55.3718V57.1743H54.5005Z" fill="#4747D9"/>
<path d="M59.001 57.2584C58.2832 57.2584 57.6835 57.0156 57.2019 56.5299C56.7202 56.0396 56.4794 55.4373 56.4794 54.7228C56.4794 54.013 56.7202 53.413 57.2019 52.9227C57.6835 52.4324 58.295 52.1873 59.0364 52.1873C59.4661 52.1873 59.8297 52.2526 60.1272 52.3834C60.4294 52.5141 60.7127 52.7032 60.9772 52.9507L60.4176 53.5881C59.9737 53.1819 59.511 52.9787 59.0293 52.9787C58.5571 52.9787 58.1652 53.1468 57.8535 53.483C57.5466 53.8193 57.3931 54.2325 57.3931 54.7228C57.3931 55.2084 57.549 55.6217 57.8606 55.9626C58.1723 56.2988 58.5618 56.4669 59.0293 56.4669C59.3126 56.4669 59.5629 56.4155 59.7801 56.3128C59.9973 56.2054 60.2216 56.0443 60.453 55.8295L61.0126 56.3898C60.734 56.6793 60.4389 56.8965 60.1272 57.0412C59.8155 57.186 59.4401 57.2584 59.001 57.2584Z" fill="#4747D9"/>
<path d="M61.9283 57.1743V52.2713H65.6044V53.0418H62.7995V54.3166H65.2857V55.087H62.7995V56.4038H65.6398V57.1743H61.9283Z" fill="#4747D9"/>
<path d="M68.8465 57.1743V52.2713H69.7177V57.1743H68.8465Z" fill="#4747D9"/>
<path d="M71.0449 57.1743V52.2713H71.8524L74.5086 55.6614V52.2713H75.3656V57.1743H74.6361L71.902 53.6862V57.1743H71.0449Z" fill="#4747D9"/>
<path d="M78.7644 57.1743V52.2713H82.4405V53.0418H79.6356V54.3166H82.1217V55.087H79.6356V56.4038H82.4759V57.1743H78.7644Z" fill="#4747D9"/>
<path d="M83.5095 57.1743V52.2713H84.3169L86.9731 55.6614V52.2713H87.8301V57.1743H87.1006L84.3665 53.6862V57.1743H83.5095Z" fill="#4747D9"/>
<path d="M91.4569 57.2584C90.6919 57.2584 90.071 57.0202 89.5941 56.5439C89.1219 56.063 88.8858 55.4559 88.8858 54.7228C88.8858 54.0224 89.1266 53.4247 89.6082 52.9297C90.0946 52.4347 90.7061 52.1873 91.4428 52.1873C91.8583 52.1873 92.2124 52.2433 92.5052 52.3554C92.798 52.4628 93.0789 52.6285 93.3481 52.8527L92.7956 53.5041C92.5879 53.3266 92.3777 53.1959 92.1652 53.1118C91.9575 53.0231 91.7048 52.9787 91.4073 52.9787C90.954 52.9787 90.5715 53.1492 90.2599 53.4901C89.953 53.8309 89.7995 54.2418 89.7995 54.7228C89.7995 55.2318 89.9553 55.652 90.267 55.9836C90.5786 56.3105 90.9847 56.4739 91.4853 56.4739C91.948 56.4739 92.347 56.3501 92.6823 56.1027V55.1851H91.4144V54.4356H93.5252V56.4949C92.9255 57.0039 92.2361 57.2584 91.4569 57.2584Z" fill="#4747D9"/>
<path d="M94.6597 57.1743V52.2713H95.5309V56.3898H98.1375V57.1743H94.6597Z" fill="#4747D9"/>
<path d="M99.0947 57.1743V52.2713H99.9659V57.1743H99.0947Z" fill="#4747D9"/>
<path d="M103.029 57.2444C102.24 57.2444 101.551 56.9829 100.96 56.4599L101.484 55.8435C101.98 56.2684 102.502 56.4809 103.05 56.4809C103.319 56.4809 103.531 56.4249 103.687 56.3128C103.848 56.196 103.928 56.042 103.928 55.8505C103.928 55.6684 103.853 55.5236 103.701 55.4162C103.55 55.3042 103.253 55.1968 102.809 55.094C102.233 54.9586 101.813 54.7882 101.548 54.5827C101.288 54.3726 101.159 54.0527 101.159 53.6231C101.159 53.2029 101.317 52.862 101.633 52.6005C101.95 52.3343 102.356 52.2013 102.851 52.2013C103.531 52.2013 104.131 52.4067 104.651 52.8176L104.183 53.469C103.725 53.1328 103.276 52.9647 102.837 52.9647C102.587 52.9647 102.389 53.0208 102.242 53.1328C102.101 53.2449 102.03 53.3873 102.03 53.5601C102.03 53.7515 102.108 53.901 102.264 54.0084C102.424 54.1111 102.738 54.2185 103.206 54.3306C103.753 54.4613 104.155 54.6364 104.41 54.8559C104.669 55.0754 104.799 55.3836 104.799 55.7805C104.799 56.2334 104.636 56.5906 104.311 56.8521C103.985 57.1136 103.557 57.2444 103.029 57.2444Z" fill="#4747D9"/>
<path d="M105.824 57.1743V52.2713H106.695V54.3096H109.061V52.2713H109.932V57.1743H109.061V55.108H106.695V57.1743H105.824Z" fill="#4747D9"/>
</svg>
