<svg width="72" height="68" viewBox="0 0 72 68" fill="none" xmlns="http://www.w3.org/2000/svg">
<path d="M36.3037 66.9881C54.5664 66.9881 69.3712 52.1735 69.3712 33.8988C69.3712 15.6241 54.5664 0.809509 36.3037 0.809509C18.0411 0.809509 3.23633 15.6241 3.23633 33.8988C3.23633 52.1735 18.0411 66.9881 36.3037 66.9881Z" fill="#32E3B5"/>
<path d="M36.3037 66.9881C54.5663 66.9881 69.3712 52.1735 69.3712 33.8988H3.23633C3.23633 52.1735 18.0412 66.9881 36.3037 66.9881Z" fill="#32E3B5"/>
<path d="M9.85155 21.6657C9.48051 21.6657 9.11828 21.4783 8.91037 21.1383C8.59251 20.6188 8.75578 19.9398 9.27508 19.6217C11.283 18.3919 13.4147 17.3067 15.6111 16.3963C21.1409 14.1045 26.9798 12.9422 32.9653 12.9422H39.6438C45.6291 12.9422 51.468 14.1044 56.998 16.3965C59.1939 17.3067 61.3255 18.3919 63.3338 19.6219C63.8531 19.9398 64.0164 20.6188 63.6985 21.1384C63.3808 21.6579 62.7021 21.8215 62.1829 21.5034C60.2725 20.3334 58.2441 19.3007 56.1542 18.4346C50.8932 16.2539 45.3381 15.1482 39.6438 15.1482H32.9653C27.2706 15.1482 21.7157 16.2539 16.4547 18.4345C14.3644 19.3009 12.3359 20.3334 10.426 21.5033C10.2464 21.6134 10.0478 21.6657 9.85155 21.6657Z" fill="#08B98B"/>
<path d="M39.643 18.4571H32.9646C22.399 18.4571 12.2662 22.6571 4.79518 30.133C3.7971 31.1317 3.23633 32.4863 3.23633 33.8988C3.23633 35.3113 3.7971 36.6659 4.79518 37.6646C12.2661 45.1405 22.399 49.3405 32.9645 49.3405H39.6429C50.2085 49.3405 60.3413 45.1405 67.8123 37.6646C68.8104 36.6659 69.3712 35.3113 69.3712 33.8988C69.3712 32.4863 68.8104 31.1317 67.8123 30.133C60.3414 22.6571 50.2085 18.4571 39.643 18.4571Z" fill="white"/>
<path d="M67.8123 30.133C60.3414 22.657 50.2085 18.4571 39.643 18.4571H32.9646C22.399 18.4571 12.2662 22.657 4.79518 30.133C3.7971 31.1317 3.23633 32.4863 3.23633 33.8988C3.23633 34.2724 3.2767 34.6418 3.35289 35.0018C3.56466 34.0008 4.06108 33.0735 4.79518 32.3389C12.2661 24.8629 22.399 20.6631 32.9645 20.6631H39.6429C50.2085 20.6631 60.3413 24.8629 67.8123 32.3389C68.5464 33.0735 69.0427 34.0008 69.2546 35.0018C69.3308 34.6418 69.3712 34.2724 69.3712 33.8988C69.3712 32.4863 68.8104 31.1317 67.8123 30.133Z" fill="#08B98B"/>
<path d="M36.3035 49.3405C44.8261 49.3405 51.735 42.427 51.735 33.8988C51.735 25.3706 44.8261 18.4571 36.3035 18.4571C27.781 18.4571 20.8721 25.3706 20.8721 33.8988C20.8721 42.427 27.781 49.3405 36.3035 49.3405Z" fill="#4747D9"/>
<path d="M32.9649 20.6631H39.6433C41.3729 20.6631 43.0904 20.7778 44.7869 20.9988C42.3529 19.3927 39.438 18.4571 36.3042 18.4571C33.1704 18.4571 30.2555 19.3927 27.8213 20.9988C29.5179 20.7778 31.2354 20.6631 32.9649 20.6631Z" fill="#0569A5"/>
<path d="M36.3039 40.5167C39.9564 40.5167 42.9174 37.5538 42.9174 33.8988C42.9174 30.2439 39.9564 27.281 36.3039 27.281C32.6514 27.281 29.6904 30.2439 29.6904 33.8988C29.6904 37.5538 32.6514 40.5167 36.3039 40.5167Z" fill="#232323"/>
<path d="M31.8953 33.8988C34.3303 33.8988 36.3043 31.9235 36.3043 29.4869C36.3043 27.0503 34.3303 25.075 31.8953 25.075C29.4603 25.075 27.4863 27.0503 27.4863 29.4869C27.4863 31.9235 29.4603 33.8988 31.8953 33.8988Z" fill="white"/>
</svg>
