<svg width="67" height="68" viewBox="0 0 67 68" fill="none" xmlns="http://www.w3.org/2000/svg">
<g clip-path="url(#clip0_45_600)">
<path d="M66.9993 30.9363V37.0637C66.9993 41.9327 65.6505 46.4806 63.3106 50.3453H52.2741V30.9363L36.0762 5.52963H41.9663C55.7918 5.52963 66.9993 16.9044 66.9993 30.9363Z" fill="#32E3B5"/>
<path d="M61.1099 30.9363V37.0637C61.1099 40.5698 60.4104 43.9101 59.1441 46.9499L51.2095 48.8596L49.0352 38.7077V30.9363C49.0352 26.9803 45.8649 23.7627 41.9671 23.7627H17.9649V29.2923L3.68866 17.6546L0 14.6462L17.9649 0V5.52965H36.077C49.9024 5.52965 61.1099 16.9044 61.1099 30.9363Z" fill="#32E3B5"/>
<path d="M67.0001 53.3539L49.0352 68L55.6616 53.3539L49.0352 38.7077L67.0001 53.3539Z" fill="#4747D9"/>
<path d="M49.0351 38.7077L61.1099 53.3539L49.0351 68V62.4704H25.0329C11.2075 62.4704 0 51.0956 0 37.0637V30.9363C0 26.0673 1.3489 21.5194 3.68866 17.6547L17.9648 29.2924V37.0637C17.9648 41.0197 21.1351 44.2373 25.0329 44.2373H49.0351V38.7077Z" fill="#4747D9"/>
</g>
<defs>
<clipPath id="clip0_45_600">
<rect width="67" height="68" fill="white"/>
</clipPath>
</defs>
</svg>
